<mxfile host="app.diagrams.net" modified="2023-07-22T10:12:13.281Z" agent="Mozilla/5.0 (Windows NT 10.0; Win64; x64) AppleWebKit/537.36 (KHTML, like Gecko) Chrome/115.0.0.0 Safari/537.36" etag="mct8Iy0aiXfjXGqQN6P8" version="21.6.5" type="google">
  <diagram name="Page-1" id="-tXMEBbQJsjGwuc9_E1T">
    <mxGraphModel grid="1" page="1" gridSize="10" guides="1" tooltips="1" connect="1" arrows="1" fold="1" pageScale="1" pageWidth="850" pageHeight="1100" math="0" shadow="0">
      <root>
        <mxCell id="0" />
        <mxCell id="1" parent="0" />
        <mxCell id="JmPSIzH447D6Qyv_Rk9V-1" value="" style="rounded=1;whiteSpace=wrap;html=1;" vertex="1" parent="1">
          <mxGeometry x="210" y="10" width="330" height="610" as="geometry" />
        </mxCell>
        <mxCell id="JmPSIzH447D6Qyv_Rk9V-2" value="&lt;b&gt;Banking System&lt;br&gt;&amp;lt;&amp;lt;Saving Account&amp;gt;&amp;gt;&lt;/b&gt;" style="text;html=1;strokeColor=none;fillColor=none;align=center;verticalAlign=middle;whiteSpace=wrap;rounded=0;" vertex="1" parent="1">
          <mxGeometry x="290" y="20" width="170" height="30" as="geometry" />
        </mxCell>
        <mxCell id="JmPSIzH447D6Qyv_Rk9V-3" value="Customer" style="shape=umlActor;verticalLabelPosition=bottom;verticalAlign=top;html=1;outlineConnect=0;" vertex="1" parent="1">
          <mxGeometry x="50" y="220" width="30" height="60" as="geometry" />
        </mxCell>
        <mxCell id="JmPSIzH447D6Qyv_Rk9V-5" value="Deposit Money" style="ellipse;whiteSpace=wrap;html=1;" vertex="1" parent="1">
          <mxGeometry x="300" y="150" width="170" height="70" as="geometry" />
        </mxCell>
        <mxCell id="JmPSIzH447D6Qyv_Rk9V-7" value="Create Saving Account" style="ellipse;whiteSpace=wrap;html=1;" vertex="1" parent="1">
          <mxGeometry x="300" y="60" width="170" height="70" as="geometry" />
        </mxCell>
        <mxCell id="JmPSIzH447D6Qyv_Rk9V-8" value="Withdraw Money" style="ellipse;whiteSpace=wrap;html=1;" vertex="1" parent="1">
          <mxGeometry x="300" y="240" width="170" height="60" as="geometry" />
        </mxCell>
        <mxCell id="JmPSIzH447D6Qyv_Rk9V-9" value="Check Balance" style="ellipse;whiteSpace=wrap;html=1;" vertex="1" parent="1">
          <mxGeometry x="297.5" y="320" width="175" height="70" as="geometry" />
        </mxCell>
        <mxCell id="JmPSIzH447D6Qyv_Rk9V-10" value="Transfer Money" style="ellipse;whiteSpace=wrap;html=1;" vertex="1" parent="1">
          <mxGeometry x="297.5" y="410" width="175" height="60" as="geometry" />
        </mxCell>
        <mxCell id="JmPSIzH447D6Qyv_Rk9V-11" value="Transfer History" style="ellipse;whiteSpace=wrap;html=1;" vertex="1" parent="1">
          <mxGeometry x="297.5" y="490" width="170" height="60" as="geometry" />
        </mxCell>
        <mxCell id="JmPSIzH447D6Qyv_Rk9V-20" value="" style="endArrow=classic;html=1;rounded=0;exitX=0.5;exitY=0.5;exitDx=0;exitDy=0;exitPerimeter=0;entryX=0;entryY=0.5;entryDx=0;entryDy=0;" edge="1" parent="1" source="JmPSIzH447D6Qyv_Rk9V-3" target="JmPSIzH447D6Qyv_Rk9V-7">
          <mxGeometry width="50" height="50" relative="1" as="geometry">
            <mxPoint x="70" y="250" as="sourcePoint" />
            <mxPoint x="120" y="200" as="targetPoint" />
          </mxGeometry>
        </mxCell>
        <mxCell id="JmPSIzH447D6Qyv_Rk9V-22" value="" style="endArrow=classic;html=1;rounded=0;entryX=0.002;entryY=0.405;entryDx=0;entryDy=0;entryPerimeter=0;" edge="1" parent="1" target="JmPSIzH447D6Qyv_Rk9V-5">
          <mxGeometry width="50" height="50" relative="1" as="geometry">
            <mxPoint x="70" y="250" as="sourcePoint" />
            <mxPoint x="310" y="105" as="targetPoint" />
          </mxGeometry>
        </mxCell>
        <mxCell id="JmPSIzH447D6Qyv_Rk9V-23" value="" style="endArrow=classic;html=1;rounded=0;exitX=0.5;exitY=0.5;exitDx=0;exitDy=0;exitPerimeter=0;entryX=-0.019;entryY=0.38;entryDx=0;entryDy=0;entryPerimeter=0;" edge="1" parent="1" source="JmPSIzH447D6Qyv_Rk9V-3" target="JmPSIzH447D6Qyv_Rk9V-8">
          <mxGeometry width="50" height="50" relative="1" as="geometry">
            <mxPoint x="85" y="270" as="sourcePoint" />
            <mxPoint x="320" y="115" as="targetPoint" />
          </mxGeometry>
        </mxCell>
        <mxCell id="JmPSIzH447D6Qyv_Rk9V-24" value="" style="endArrow=classic;html=1;rounded=0;entryX=0;entryY=0.5;entryDx=0;entryDy=0;" edge="1" parent="1" target="JmPSIzH447D6Qyv_Rk9V-9">
          <mxGeometry width="50" height="50" relative="1" as="geometry">
            <mxPoint x="70" y="250" as="sourcePoint" />
            <mxPoint x="330" y="125" as="targetPoint" />
          </mxGeometry>
        </mxCell>
        <mxCell id="JmPSIzH447D6Qyv_Rk9V-25" value="" style="endArrow=classic;html=1;rounded=0;entryX=0;entryY=0.5;entryDx=0;entryDy=0;exitX=0.5;exitY=0.5;exitDx=0;exitDy=0;exitPerimeter=0;" edge="1" parent="1" source="JmPSIzH447D6Qyv_Rk9V-3" target="JmPSIzH447D6Qyv_Rk9V-10">
          <mxGeometry width="50" height="50" relative="1" as="geometry">
            <mxPoint x="70" y="250" as="sourcePoint" />
            <mxPoint x="340" y="135" as="targetPoint" />
          </mxGeometry>
        </mxCell>
        <mxCell id="JmPSIzH447D6Qyv_Rk9V-26" value="" style="endArrow=classic;html=1;rounded=0;entryX=0;entryY=0.5;entryDx=0;entryDy=0;exitX=0.5;exitY=0.5;exitDx=0;exitDy=0;exitPerimeter=0;" edge="1" parent="1" source="JmPSIzH447D6Qyv_Rk9V-3" target="JmPSIzH447D6Qyv_Rk9V-11">
          <mxGeometry width="50" height="50" relative="1" as="geometry">
            <mxPoint x="70" y="250" as="sourcePoint" />
            <mxPoint x="350" y="145" as="targetPoint" />
          </mxGeometry>
        </mxCell>
        <mxCell id="JmPSIzH447D6Qyv_Rk9V-27" value="Bank System" style="shape=umlActor;verticalLabelPosition=bottom;verticalAlign=top;html=1;outlineConnect=0;" vertex="1" parent="1">
          <mxGeometry x="710" y="220" width="30" height="60" as="geometry" />
        </mxCell>
        <mxCell id="JmPSIzH447D6Qyv_Rk9V-29" value="" style="endArrow=classic;html=1;rounded=0;exitX=0.5;exitY=0.5;exitDx=0;exitDy=0;exitPerimeter=0;entryX=1;entryY=0.5;entryDx=0;entryDy=0;" edge="1" parent="1" source="JmPSIzH447D6Qyv_Rk9V-27" target="JmPSIzH447D6Qyv_Rk9V-5">
          <mxGeometry width="50" height="50" relative="1" as="geometry">
            <mxPoint x="802" y="403" as="sourcePoint" />
            <mxPoint x="570" y="390" as="targetPoint" />
          </mxGeometry>
        </mxCell>
        <mxCell id="JmPSIzH447D6Qyv_Rk9V-30" value="Update Balance" style="edgeLabel;html=1;align=center;verticalAlign=middle;resizable=0;points=[];rotation=15;" connectable="0" vertex="1" parent="JmPSIzH447D6Qyv_Rk9V-29">
          <mxGeometry x="0.3264" y="3" relative="1" as="geometry">
            <mxPoint x="45" y="-10" as="offset" />
          </mxGeometry>
        </mxCell>
        <mxCell id="JmPSIzH447D6Qyv_Rk9V-31" value="" style="endArrow=classic;html=1;rounded=0;exitX=0.5;exitY=0.5;exitDx=0;exitDy=0;exitPerimeter=0;entryX=1;entryY=0.5;entryDx=0;entryDy=0;" edge="1" parent="1" source="JmPSIzH447D6Qyv_Rk9V-27" target="JmPSIzH447D6Qyv_Rk9V-8">
          <mxGeometry width="50" height="50" relative="1" as="geometry">
            <mxPoint x="735" y="260" as="sourcePoint" />
            <mxPoint x="478" y="272" as="targetPoint" />
          </mxGeometry>
        </mxCell>
        <mxCell id="JmPSIzH447D6Qyv_Rk9V-32" value="Update Balance" style="edgeLabel;html=1;align=center;verticalAlign=middle;resizable=0;points=[];" connectable="0" vertex="1" parent="JmPSIzH447D6Qyv_Rk9V-31">
          <mxGeometry x="0.3264" y="3" relative="1" as="geometry">
            <mxPoint x="34" y="-16" as="offset" />
          </mxGeometry>
        </mxCell>
        <mxCell id="JmPSIzH447D6Qyv_Rk9V-33" value="" style="endArrow=classic;html=1;rounded=0;exitX=0.5;exitY=0.5;exitDx=0;exitDy=0;exitPerimeter=0;entryX=0.991;entryY=0.331;entryDx=0;entryDy=0;entryPerimeter=0;" edge="1" parent="1" source="JmPSIzH447D6Qyv_Rk9V-27" target="JmPSIzH447D6Qyv_Rk9V-10">
          <mxGeometry width="50" height="50" relative="1" as="geometry">
            <mxPoint x="745" y="270" as="sourcePoint" />
            <mxPoint x="488" y="282" as="targetPoint" />
          </mxGeometry>
        </mxCell>
        <mxCell id="JmPSIzH447D6Qyv_Rk9V-34" value="Update Balance" style="edgeLabel;html=1;align=center;verticalAlign=middle;resizable=0;points=[];rotation=-35;" connectable="0" vertex="1" parent="JmPSIzH447D6Qyv_Rk9V-33">
          <mxGeometry x="0.3264" y="3" relative="1" as="geometry">
            <mxPoint x="31" y="-11" as="offset" />
          </mxGeometry>
        </mxCell>
        <mxCell id="JmPSIzH447D6Qyv_Rk9V-35" value="" style="endArrow=classic;html=1;rounded=0;exitX=0.5;exitY=0.5;exitDx=0;exitDy=0;exitPerimeter=0;entryX=0.995;entryY=0.395;entryDx=0;entryDy=0;entryPerimeter=0;" edge="1" parent="1" source="JmPSIzH447D6Qyv_Rk9V-27" target="JmPSIzH447D6Qyv_Rk9V-7">
          <mxGeometry width="50" height="50" relative="1" as="geometry">
            <mxPoint x="755" y="280" as="sourcePoint" />
            <mxPoint x="498" y="292" as="targetPoint" />
          </mxGeometry>
        </mxCell>
        <mxCell id="JmPSIzH447D6Qyv_Rk9V-36" value="Approve or Rejectt" style="edgeLabel;html=1;align=center;verticalAlign=middle;resizable=0;points=[];rotation=30;" connectable="0" vertex="1" parent="JmPSIzH447D6Qyv_Rk9V-35">
          <mxGeometry x="0.3264" y="3" relative="1" as="geometry">
            <mxPoint x="46" y="5" as="offset" />
          </mxGeometry>
        </mxCell>
        <mxCell id="JmPSIzH447D6Qyv_Rk9V-38" value="" style="rounded=1;whiteSpace=wrap;html=1;" vertex="1" parent="1">
          <mxGeometry x="210" y="930" width="330" height="660" as="geometry" />
        </mxCell>
        <mxCell id="JmPSIzH447D6Qyv_Rk9V-39" value="&lt;b&gt;Banking System&lt;br&gt;&amp;lt;&amp;lt;Loan&amp;gt;&amp;gt;&lt;br&gt;&lt;/b&gt;" style="text;html=1;strokeColor=none;fillColor=none;align=center;verticalAlign=middle;whiteSpace=wrap;rounded=0;" vertex="1" parent="1">
          <mxGeometry x="290" y="940" width="170" height="30" as="geometry" />
        </mxCell>
        <mxCell id="JmPSIzH447D6Qyv_Rk9V-40" value="Customer" style="shape=umlActor;verticalLabelPosition=bottom;verticalAlign=top;html=1;outlineConnect=0;" vertex="1" parent="1">
          <mxGeometry x="50" y="1140" width="30" height="60" as="geometry" />
        </mxCell>
        <mxCell id="JmPSIzH447D6Qyv_Rk9V-41" value="Check Status" style="ellipse;whiteSpace=wrap;html=1;" vertex="1" parent="1">
          <mxGeometry x="300" y="1070" width="170" height="70" as="geometry" />
        </mxCell>
        <mxCell id="JmPSIzH447D6Qyv_Rk9V-42" value="Apply Loan" style="ellipse;whiteSpace=wrap;html=1;" vertex="1" parent="1">
          <mxGeometry x="300" y="980" width="170" height="70" as="geometry" />
        </mxCell>
        <mxCell id="JmPSIzH447D6Qyv_Rk9V-43" value="Interest Rate" style="ellipse;whiteSpace=wrap;html=1;" vertex="1" parent="1">
          <mxGeometry x="300" y="1160" width="170" height="60" as="geometry" />
        </mxCell>
        <mxCell id="JmPSIzH447D6Qyv_Rk9V-44" value="EMI" style="ellipse;whiteSpace=wrap;html=1;" vertex="1" parent="1">
          <mxGeometry x="297.5" y="1240" width="175" height="70" as="geometry" />
        </mxCell>
        <mxCell id="JmPSIzH447D6Qyv_Rk9V-45" value="Transfer History" style="ellipse;whiteSpace=wrap;html=1;" vertex="1" parent="1">
          <mxGeometry x="297.5" y="1330" width="175" height="60" as="geometry" />
        </mxCell>
        <mxCell id="JmPSIzH447D6Qyv_Rk9V-46" value="Partial Payment" style="ellipse;whiteSpace=wrap;html=1;" vertex="1" parent="1">
          <mxGeometry x="297.5" y="1410" width="170" height="60" as="geometry" />
        </mxCell>
        <mxCell id="JmPSIzH447D6Qyv_Rk9V-47" value="" style="endArrow=classic;html=1;rounded=0;exitX=0.5;exitY=0.5;exitDx=0;exitDy=0;exitPerimeter=0;entryX=0;entryY=0.5;entryDx=0;entryDy=0;" edge="1" parent="1" source="JmPSIzH447D6Qyv_Rk9V-40" target="JmPSIzH447D6Qyv_Rk9V-42">
          <mxGeometry width="50" height="50" relative="1" as="geometry">
            <mxPoint x="70" y="1170" as="sourcePoint" />
            <mxPoint x="120" y="1120" as="targetPoint" />
          </mxGeometry>
        </mxCell>
        <mxCell id="JmPSIzH447D6Qyv_Rk9V-48" value="" style="endArrow=classic;html=1;rounded=0;entryX=0.002;entryY=0.405;entryDx=0;entryDy=0;entryPerimeter=0;" edge="1" parent="1" target="JmPSIzH447D6Qyv_Rk9V-41">
          <mxGeometry width="50" height="50" relative="1" as="geometry">
            <mxPoint x="70" y="1170" as="sourcePoint" />
            <mxPoint x="310" y="1025" as="targetPoint" />
          </mxGeometry>
        </mxCell>
        <mxCell id="JmPSIzH447D6Qyv_Rk9V-49" value="" style="endArrow=classic;html=1;rounded=0;exitX=0.5;exitY=0.5;exitDx=0;exitDy=0;exitPerimeter=0;entryX=-0.019;entryY=0.38;entryDx=0;entryDy=0;entryPerimeter=0;" edge="1" parent="1" source="JmPSIzH447D6Qyv_Rk9V-40" target="JmPSIzH447D6Qyv_Rk9V-43">
          <mxGeometry width="50" height="50" relative="1" as="geometry">
            <mxPoint x="85" y="1190" as="sourcePoint" />
            <mxPoint x="320" y="1035" as="targetPoint" />
          </mxGeometry>
        </mxCell>
        <mxCell id="JmPSIzH447D6Qyv_Rk9V-50" value="" style="endArrow=classic;html=1;rounded=0;entryX=0;entryY=0.5;entryDx=0;entryDy=0;" edge="1" parent="1" target="JmPSIzH447D6Qyv_Rk9V-44">
          <mxGeometry width="50" height="50" relative="1" as="geometry">
            <mxPoint x="70" y="1170" as="sourcePoint" />
            <mxPoint x="330" y="1045" as="targetPoint" />
          </mxGeometry>
        </mxCell>
        <mxCell id="JmPSIzH447D6Qyv_Rk9V-51" value="" style="endArrow=classic;html=1;rounded=0;entryX=0;entryY=0.5;entryDx=0;entryDy=0;exitX=0.5;exitY=0.5;exitDx=0;exitDy=0;exitPerimeter=0;" edge="1" parent="1" source="JmPSIzH447D6Qyv_Rk9V-40" target="JmPSIzH447D6Qyv_Rk9V-45">
          <mxGeometry width="50" height="50" relative="1" as="geometry">
            <mxPoint x="70" y="1170" as="sourcePoint" />
            <mxPoint x="340" y="1055" as="targetPoint" />
          </mxGeometry>
        </mxCell>
        <mxCell id="JmPSIzH447D6Qyv_Rk9V-52" value="" style="endArrow=classic;html=1;rounded=0;entryX=0;entryY=0.5;entryDx=0;entryDy=0;exitX=0.5;exitY=0.5;exitDx=0;exitDy=0;exitPerimeter=0;" edge="1" parent="1" source="JmPSIzH447D6Qyv_Rk9V-40" target="JmPSIzH447D6Qyv_Rk9V-46">
          <mxGeometry width="50" height="50" relative="1" as="geometry">
            <mxPoint x="70" y="1170" as="sourcePoint" />
            <mxPoint x="350" y="1065" as="targetPoint" />
          </mxGeometry>
        </mxCell>
        <mxCell id="JmPSIzH447D6Qyv_Rk9V-53" value="Bank System" style="shape=umlActor;verticalLabelPosition=bottom;verticalAlign=top;html=1;outlineConnect=0;" vertex="1" parent="1">
          <mxGeometry x="710" y="1140" width="30" height="60" as="geometry" />
        </mxCell>
        <mxCell id="JmPSIzH447D6Qyv_Rk9V-54" value="" style="endArrow=classic;html=1;rounded=0;exitX=0.5;exitY=0.5;exitDx=0;exitDy=0;exitPerimeter=0;entryX=1;entryY=0.5;entryDx=0;entryDy=0;" edge="1" parent="1" source="JmPSIzH447D6Qyv_Rk9V-53" target="JmPSIzH447D6Qyv_Rk9V-41">
          <mxGeometry width="50" height="50" relative="1" as="geometry">
            <mxPoint x="802" y="1323" as="sourcePoint" />
            <mxPoint x="570" y="1310" as="targetPoint" />
          </mxGeometry>
        </mxCell>
        <mxCell id="JmPSIzH447D6Qyv_Rk9V-55" value="Update Status" style="edgeLabel;html=1;align=center;verticalAlign=middle;resizable=0;points=[];rotation=15;" connectable="0" vertex="1" parent="JmPSIzH447D6Qyv_Rk9V-54">
          <mxGeometry x="0.3264" y="3" relative="1" as="geometry">
            <mxPoint x="45" y="-10" as="offset" />
          </mxGeometry>
        </mxCell>
        <mxCell id="JmPSIzH447D6Qyv_Rk9V-56" value="" style="endArrow=classic;html=1;rounded=0;exitX=0.5;exitY=0.5;exitDx=0;exitDy=0;exitPerimeter=0;entryX=1;entryY=0.5;entryDx=0;entryDy=0;" edge="1" parent="1" source="JmPSIzH447D6Qyv_Rk9V-53" target="JmPSIzH447D6Qyv_Rk9V-43">
          <mxGeometry width="50" height="50" relative="1" as="geometry">
            <mxPoint x="735" y="1180" as="sourcePoint" />
            <mxPoint x="478" y="1192" as="targetPoint" />
          </mxGeometry>
        </mxCell>
        <mxCell id="JmPSIzH447D6Qyv_Rk9V-57" value="Update Interest" style="edgeLabel;html=1;align=center;verticalAlign=middle;resizable=0;points=[];" connectable="0" vertex="1" parent="JmPSIzH447D6Qyv_Rk9V-56">
          <mxGeometry x="0.3264" y="3" relative="1" as="geometry">
            <mxPoint x="34" y="-16" as="offset" />
          </mxGeometry>
        </mxCell>
        <mxCell id="JmPSIzH447D6Qyv_Rk9V-58" value="" style="endArrow=classic;html=1;rounded=0;exitX=0.5;exitY=0.5;exitDx=0;exitDy=0;exitPerimeter=0;entryX=0.991;entryY=0.331;entryDx=0;entryDy=0;entryPerimeter=0;" edge="1" parent="1" source="JmPSIzH447D6Qyv_Rk9V-53" target="JmPSIzH447D6Qyv_Rk9V-45">
          <mxGeometry width="50" height="50" relative="1" as="geometry">
            <mxPoint x="745" y="1190" as="sourcePoint" />
            <mxPoint x="488" y="1202" as="targetPoint" />
          </mxGeometry>
        </mxCell>
        <mxCell id="JmPSIzH447D6Qyv_Rk9V-59" value="Update Balance" style="edgeLabel;html=1;align=center;verticalAlign=middle;resizable=0;points=[];rotation=-35;" connectable="0" vertex="1" parent="JmPSIzH447D6Qyv_Rk9V-58">
          <mxGeometry x="0.3264" y="3" relative="1" as="geometry">
            <mxPoint x="31" y="-11" as="offset" />
          </mxGeometry>
        </mxCell>
        <mxCell id="JmPSIzH447D6Qyv_Rk9V-60" value="" style="endArrow=classic;html=1;rounded=0;exitX=0.5;exitY=0.5;exitDx=0;exitDy=0;exitPerimeter=0;entryX=0.995;entryY=0.395;entryDx=0;entryDy=0;entryPerimeter=0;" edge="1" parent="1" source="JmPSIzH447D6Qyv_Rk9V-53" target="JmPSIzH447D6Qyv_Rk9V-42">
          <mxGeometry width="50" height="50" relative="1" as="geometry">
            <mxPoint x="755" y="1200" as="sourcePoint" />
            <mxPoint x="498" y="1212" as="targetPoint" />
          </mxGeometry>
        </mxCell>
        <mxCell id="JmPSIzH447D6Qyv_Rk9V-61" value="Approve or Rejectt" style="edgeLabel;html=1;align=center;verticalAlign=middle;resizable=0;points=[];rotation=30;" connectable="0" vertex="1" parent="JmPSIzH447D6Qyv_Rk9V-60">
          <mxGeometry x="0.3264" y="3" relative="1" as="geometry">
            <mxPoint x="46" y="5" as="offset" />
          </mxGeometry>
        </mxCell>
        <mxCell id="JmPSIzH447D6Qyv_Rk9V-62" value="Close Loan" style="ellipse;whiteSpace=wrap;html=1;" vertex="1" parent="1">
          <mxGeometry x="290" y="1490" width="170" height="70" as="geometry" />
        </mxCell>
        <mxCell id="JmPSIzH447D6Qyv_Rk9V-63" value="" style="endArrow=classic;html=1;rounded=0;" edge="1" parent="1">
          <mxGeometry width="50" height="50" relative="1" as="geometry">
            <mxPoint x="725" y="1170" as="sourcePoint" />
            <mxPoint x="470" y="1440" as="targetPoint" />
          </mxGeometry>
        </mxCell>
        <mxCell id="JmPSIzH447D6Qyv_Rk9V-64" value="Update Payment" style="edgeLabel;html=1;align=center;verticalAlign=middle;resizable=0;points=[];rotation=0;" connectable="0" vertex="1" parent="JmPSIzH447D6Qyv_Rk9V-63">
          <mxGeometry x="0.0914" y="-1" relative="1" as="geometry">
            <mxPoint x="15" y="23" as="offset" />
          </mxGeometry>
        </mxCell>
        <mxCell id="JmPSIzH447D6Qyv_Rk9V-114" value="" style="rounded=1;whiteSpace=wrap;html=1;" vertex="1" parent="1">
          <mxGeometry x="1060" y="30" width="330" height="640" as="geometry" />
        </mxCell>
        <mxCell id="JmPSIzH447D6Qyv_Rk9V-115" value="&lt;b&gt;Banking System&lt;br&gt;&amp;lt;&amp;lt;Current Account&amp;gt;&amp;gt;&lt;/b&gt;" style="text;html=1;strokeColor=none;fillColor=none;align=center;verticalAlign=middle;whiteSpace=wrap;rounded=0;" vertex="1" parent="1">
          <mxGeometry x="1140" y="40" width="170" height="30" as="geometry" />
        </mxCell>
        <mxCell id="JmPSIzH447D6Qyv_Rk9V-116" value="Customer" style="shape=umlActor;verticalLabelPosition=bottom;verticalAlign=top;html=1;outlineConnect=0;" vertex="1" parent="1">
          <mxGeometry x="900" y="240" width="30" height="60" as="geometry" />
        </mxCell>
        <mxCell id="JmPSIzH447D6Qyv_Rk9V-117" value="Deposit Money" style="ellipse;whiteSpace=wrap;html=1;" vertex="1" parent="1">
          <mxGeometry x="1150" y="170" width="170" height="70" as="geometry" />
        </mxCell>
        <mxCell id="JmPSIzH447D6Qyv_Rk9V-118" value="Create Saving Account" style="ellipse;whiteSpace=wrap;html=1;" vertex="1" parent="1">
          <mxGeometry x="1150" y="80" width="170" height="70" as="geometry" />
        </mxCell>
        <mxCell id="JmPSIzH447D6Qyv_Rk9V-119" value="Withdraw Money" style="ellipse;whiteSpace=wrap;html=1;" vertex="1" parent="1">
          <mxGeometry x="1150" y="260" width="170" height="60" as="geometry" />
        </mxCell>
        <mxCell id="JmPSIzH447D6Qyv_Rk9V-120" value="Check Balance" style="ellipse;whiteSpace=wrap;html=1;" vertex="1" parent="1">
          <mxGeometry x="1147.5" y="340" width="175" height="70" as="geometry" />
        </mxCell>
        <mxCell id="JmPSIzH447D6Qyv_Rk9V-121" value="Transfer Money" style="ellipse;whiteSpace=wrap;html=1;" vertex="1" parent="1">
          <mxGeometry x="1147.5" y="430" width="175" height="60" as="geometry" />
        </mxCell>
        <mxCell id="JmPSIzH447D6Qyv_Rk9V-122" value="Transfer History" style="ellipse;whiteSpace=wrap;html=1;" vertex="1" parent="1">
          <mxGeometry x="1147.5" y="510" width="170" height="60" as="geometry" />
        </mxCell>
        <mxCell id="JmPSIzH447D6Qyv_Rk9V-123" value="" style="endArrow=classic;html=1;rounded=0;exitX=0.5;exitY=0.5;exitDx=0;exitDy=0;exitPerimeter=0;entryX=0;entryY=0.5;entryDx=0;entryDy=0;" edge="1" parent="1" source="JmPSIzH447D6Qyv_Rk9V-116" target="JmPSIzH447D6Qyv_Rk9V-118">
          <mxGeometry width="50" height="50" relative="1" as="geometry">
            <mxPoint x="920" y="270" as="sourcePoint" />
            <mxPoint x="970" y="220" as="targetPoint" />
          </mxGeometry>
        </mxCell>
        <mxCell id="JmPSIzH447D6Qyv_Rk9V-124" value="" style="endArrow=classic;html=1;rounded=0;entryX=0.002;entryY=0.405;entryDx=0;entryDy=0;entryPerimeter=0;" edge="1" parent="1" target="JmPSIzH447D6Qyv_Rk9V-117">
          <mxGeometry width="50" height="50" relative="1" as="geometry">
            <mxPoint x="920" y="270" as="sourcePoint" />
            <mxPoint x="1160" y="125" as="targetPoint" />
          </mxGeometry>
        </mxCell>
        <mxCell id="JmPSIzH447D6Qyv_Rk9V-125" value="" style="endArrow=classic;html=1;rounded=0;exitX=0.5;exitY=0.5;exitDx=0;exitDy=0;exitPerimeter=0;entryX=-0.019;entryY=0.38;entryDx=0;entryDy=0;entryPerimeter=0;" edge="1" parent="1" source="JmPSIzH447D6Qyv_Rk9V-116" target="JmPSIzH447D6Qyv_Rk9V-119">
          <mxGeometry width="50" height="50" relative="1" as="geometry">
            <mxPoint x="935" y="290" as="sourcePoint" />
            <mxPoint x="1170" y="135" as="targetPoint" />
          </mxGeometry>
        </mxCell>
        <mxCell id="JmPSIzH447D6Qyv_Rk9V-126" value="" style="endArrow=classic;html=1;rounded=0;entryX=0;entryY=0.5;entryDx=0;entryDy=0;" edge="1" parent="1" target="JmPSIzH447D6Qyv_Rk9V-120">
          <mxGeometry width="50" height="50" relative="1" as="geometry">
            <mxPoint x="920" y="270" as="sourcePoint" />
            <mxPoint x="1180" y="145" as="targetPoint" />
          </mxGeometry>
        </mxCell>
        <mxCell id="JmPSIzH447D6Qyv_Rk9V-127" value="" style="endArrow=classic;html=1;rounded=0;entryX=0;entryY=0.5;entryDx=0;entryDy=0;exitX=0.5;exitY=0.5;exitDx=0;exitDy=0;exitPerimeter=0;" edge="1" parent="1" source="JmPSIzH447D6Qyv_Rk9V-116" target="JmPSIzH447D6Qyv_Rk9V-121">
          <mxGeometry width="50" height="50" relative="1" as="geometry">
            <mxPoint x="920" y="270" as="sourcePoint" />
            <mxPoint x="1190" y="155" as="targetPoint" />
          </mxGeometry>
        </mxCell>
        <mxCell id="JmPSIzH447D6Qyv_Rk9V-128" value="" style="endArrow=classic;html=1;rounded=0;entryX=0;entryY=0.5;entryDx=0;entryDy=0;exitX=0.5;exitY=0.5;exitDx=0;exitDy=0;exitPerimeter=0;" edge="1" parent="1" source="JmPSIzH447D6Qyv_Rk9V-116" target="JmPSIzH447D6Qyv_Rk9V-122">
          <mxGeometry width="50" height="50" relative="1" as="geometry">
            <mxPoint x="920" y="270" as="sourcePoint" />
            <mxPoint x="1200" y="165" as="targetPoint" />
          </mxGeometry>
        </mxCell>
        <mxCell id="JmPSIzH447D6Qyv_Rk9V-129" value="Bank System" style="shape=umlActor;verticalLabelPosition=bottom;verticalAlign=top;html=1;outlineConnect=0;" vertex="1" parent="1">
          <mxGeometry x="1560" y="240" width="30" height="60" as="geometry" />
        </mxCell>
        <mxCell id="JmPSIzH447D6Qyv_Rk9V-130" value="" style="endArrow=classic;html=1;rounded=0;exitX=0.5;exitY=0.5;exitDx=0;exitDy=0;exitPerimeter=0;entryX=1;entryY=0.5;entryDx=0;entryDy=0;" edge="1" parent="1" source="JmPSIzH447D6Qyv_Rk9V-129" target="JmPSIzH447D6Qyv_Rk9V-117">
          <mxGeometry width="50" height="50" relative="1" as="geometry">
            <mxPoint x="1652" y="423" as="sourcePoint" />
            <mxPoint x="1420" y="410" as="targetPoint" />
          </mxGeometry>
        </mxCell>
        <mxCell id="JmPSIzH447D6Qyv_Rk9V-131" value="Update Balance" style="edgeLabel;html=1;align=center;verticalAlign=middle;resizable=0;points=[];rotation=15;" connectable="0" vertex="1" parent="JmPSIzH447D6Qyv_Rk9V-130">
          <mxGeometry x="0.3264" y="3" relative="1" as="geometry">
            <mxPoint x="45" y="-10" as="offset" />
          </mxGeometry>
        </mxCell>
        <mxCell id="JmPSIzH447D6Qyv_Rk9V-132" value="" style="endArrow=classic;html=1;rounded=0;exitX=0.5;exitY=0.5;exitDx=0;exitDy=0;exitPerimeter=0;entryX=1;entryY=0.5;entryDx=0;entryDy=0;" edge="1" parent="1" source="JmPSIzH447D6Qyv_Rk9V-129" target="JmPSIzH447D6Qyv_Rk9V-119">
          <mxGeometry width="50" height="50" relative="1" as="geometry">
            <mxPoint x="1585" y="280" as="sourcePoint" />
            <mxPoint x="1328" y="292" as="targetPoint" />
          </mxGeometry>
        </mxCell>
        <mxCell id="JmPSIzH447D6Qyv_Rk9V-133" value="Update Balance" style="edgeLabel;html=1;align=center;verticalAlign=middle;resizable=0;points=[];" connectable="0" vertex="1" parent="JmPSIzH447D6Qyv_Rk9V-132">
          <mxGeometry x="0.3264" y="3" relative="1" as="geometry">
            <mxPoint x="34" y="-16" as="offset" />
          </mxGeometry>
        </mxCell>
        <mxCell id="JmPSIzH447D6Qyv_Rk9V-134" value="" style="endArrow=classic;html=1;rounded=0;exitX=0.5;exitY=0.5;exitDx=0;exitDy=0;exitPerimeter=0;entryX=0.991;entryY=0.331;entryDx=0;entryDy=0;entryPerimeter=0;" edge="1" parent="1" source="JmPSIzH447D6Qyv_Rk9V-129" target="JmPSIzH447D6Qyv_Rk9V-121">
          <mxGeometry width="50" height="50" relative="1" as="geometry">
            <mxPoint x="1595" y="290" as="sourcePoint" />
            <mxPoint x="1338" y="302" as="targetPoint" />
          </mxGeometry>
        </mxCell>
        <mxCell id="JmPSIzH447D6Qyv_Rk9V-135" value="Update Balance" style="edgeLabel;html=1;align=center;verticalAlign=middle;resizable=0;points=[];rotation=-35;" connectable="0" vertex="1" parent="JmPSIzH447D6Qyv_Rk9V-134">
          <mxGeometry x="0.3264" y="3" relative="1" as="geometry">
            <mxPoint x="31" y="-11" as="offset" />
          </mxGeometry>
        </mxCell>
        <mxCell id="JmPSIzH447D6Qyv_Rk9V-136" value="" style="endArrow=classic;html=1;rounded=0;exitX=0.5;exitY=0.5;exitDx=0;exitDy=0;exitPerimeter=0;entryX=0.995;entryY=0.395;entryDx=0;entryDy=0;entryPerimeter=0;" edge="1" parent="1" source="JmPSIzH447D6Qyv_Rk9V-129" target="JmPSIzH447D6Qyv_Rk9V-118">
          <mxGeometry width="50" height="50" relative="1" as="geometry">
            <mxPoint x="1605" y="300" as="sourcePoint" />
            <mxPoint x="1348" y="312" as="targetPoint" />
          </mxGeometry>
        </mxCell>
        <mxCell id="JmPSIzH447D6Qyv_Rk9V-137" value="Approve or Rejectt" style="edgeLabel;html=1;align=center;verticalAlign=middle;resizable=0;points=[];rotation=30;" connectable="0" vertex="1" parent="JmPSIzH447D6Qyv_Rk9V-136">
          <mxGeometry x="0.3264" y="3" relative="1" as="geometry">
            <mxPoint x="46" y="5" as="offset" />
          </mxGeometry>
        </mxCell>
        <mxCell id="JmPSIzH447D6Qyv_Rk9V-138" value="Fixed Deposit" style="ellipse;whiteSpace=wrap;html=1;" vertex="1" parent="1">
          <mxGeometry x="1147.5" y="580" width="170" height="60" as="geometry" />
        </mxCell>
        <mxCell id="hn0zFCyBM_LwEXd8a6wm-2" value="" style="shape=umlLifeline;perimeter=lifelinePerimeter;whiteSpace=wrap;html=1;container=1;dropTarget=0;collapsible=0;recursiveResize=0;outlineConnect=0;portConstraint=eastwest;newEdgeStyle={&quot;edgeStyle&quot;:&quot;elbowEdgeStyle&quot;,&quot;elbow&quot;:&quot;vertical&quot;,&quot;curved&quot;:0,&quot;rounded&quot;:0};participant=umlActor;" vertex="1" parent="1">
          <mxGeometry x="140" y="1720" width="20" height="300" as="geometry" />
        </mxCell>
        <mxCell id="hn0zFCyBM_LwEXd8a6wm-3" value="" style="html=1;points=[];perimeter=orthogonalPerimeter;outlineConnect=0;targetShapes=umlLifeline;portConstraint=eastwest;newEdgeStyle={&quot;edgeStyle&quot;:&quot;elbowEdgeStyle&quot;,&quot;elbow&quot;:&quot;vertical&quot;,&quot;curved&quot;:0,&quot;rounded&quot;:0};" vertex="1" parent="hn0zFCyBM_LwEXd8a6wm-2">
          <mxGeometry x="5" y="70" width="10" height="160" as="geometry" />
        </mxCell>
        <mxCell id="hn0zFCyBM_LwEXd8a6wm-4" value="Validate" style="shape=umlLifeline;perimeter=lifelinePerimeter;whiteSpace=wrap;html=1;container=1;dropTarget=0;collapsible=0;recursiveResize=0;outlineConnect=0;portConstraint=eastwest;newEdgeStyle={&quot;edgeStyle&quot;:&quot;elbowEdgeStyle&quot;,&quot;elbow&quot;:&quot;vertical&quot;,&quot;curved&quot;:0,&quot;rounded&quot;:0};" vertex="1" parent="1">
          <mxGeometry x="490" y="1720" width="100" height="300" as="geometry" />
        </mxCell>
        <mxCell id="hn0zFCyBM_LwEXd8a6wm-8" value="" style="html=1;points=[];perimeter=orthogonalPerimeter;outlineConnect=0;targetShapes=umlLifeline;portConstraint=eastwest;newEdgeStyle={&quot;edgeStyle&quot;:&quot;elbowEdgeStyle&quot;,&quot;elbow&quot;:&quot;vertical&quot;,&quot;curved&quot;:0,&quot;rounded&quot;:0};" vertex="1" parent="hn0zFCyBM_LwEXd8a6wm-4">
          <mxGeometry x="45" y="80" width="10" height="140" as="geometry" />
        </mxCell>
        <mxCell id="hn0zFCyBM_LwEXd8a6wm-5" value="Current Account" style="shape=umlLifeline;perimeter=lifelinePerimeter;whiteSpace=wrap;html=1;container=1;dropTarget=0;collapsible=0;recursiveResize=0;outlineConnect=0;portConstraint=eastwest;newEdgeStyle={&quot;edgeStyle&quot;:&quot;elbowEdgeStyle&quot;,&quot;elbow&quot;:&quot;vertical&quot;,&quot;curved&quot;:0,&quot;rounded&quot;:0};" vertex="1" parent="1">
          <mxGeometry x="290" y="1720" width="100" height="300" as="geometry" />
        </mxCell>
        <mxCell id="hn0zFCyBM_LwEXd8a6wm-7" value="" style="html=1;points=[];perimeter=orthogonalPerimeter;outlineConnect=0;targetShapes=umlLifeline;portConstraint=eastwest;newEdgeStyle={&quot;edgeStyle&quot;:&quot;elbowEdgeStyle&quot;,&quot;elbow&quot;:&quot;vertical&quot;,&quot;curved&quot;:0,&quot;rounded&quot;:0};" vertex="1" parent="hn0zFCyBM_LwEXd8a6wm-5">
          <mxGeometry x="40" y="80" width="10" height="140" as="geometry" />
        </mxCell>
        <mxCell id="hn0zFCyBM_LwEXd8a6wm-6" value="Database" style="shape=umlLifeline;perimeter=lifelinePerimeter;whiteSpace=wrap;html=1;container=1;dropTarget=0;collapsible=0;recursiveResize=0;outlineConnect=0;portConstraint=eastwest;newEdgeStyle={&quot;edgeStyle&quot;:&quot;elbowEdgeStyle&quot;,&quot;elbow&quot;:&quot;vertical&quot;,&quot;curved&quot;:0,&quot;rounded&quot;:0};" vertex="1" parent="1">
          <mxGeometry x="670" y="1720" width="100" height="300" as="geometry" />
        </mxCell>
        <mxCell id="hn0zFCyBM_LwEXd8a6wm-9" value="" style="html=1;points=[];perimeter=orthogonalPerimeter;outlineConnect=0;targetShapes=umlLifeline;portConstraint=eastwest;newEdgeStyle={&quot;edgeStyle&quot;:&quot;elbowEdgeStyle&quot;,&quot;elbow&quot;:&quot;vertical&quot;,&quot;curved&quot;:0,&quot;rounded&quot;:0};" vertex="1" parent="hn0zFCyBM_LwEXd8a6wm-6">
          <mxGeometry x="45" y="80" width="10" height="140" as="geometry" />
        </mxCell>
        <mxCell id="hn0zFCyBM_LwEXd8a6wm-17" value="Send Details" style="html=1;verticalAlign=bottom;endArrow=block;edgeStyle=elbowEdgeStyle;elbow=vertical;curved=0;rounded=0;" edge="1" parent="1">
          <mxGeometry width="80" relative="1" as="geometry">
            <mxPoint x="155" y="1820" as="sourcePoint" />
            <mxPoint x="330" y="1820" as="targetPoint" />
          </mxGeometry>
        </mxCell>
        <mxCell id="hn0zFCyBM_LwEXd8a6wm-18" value="Validate Details" style="html=1;verticalAlign=bottom;endArrow=block;edgeStyle=elbowEdgeStyle;elbow=vertical;curved=0;rounded=0;" edge="1" parent="1" target="hn0zFCyBM_LwEXd8a6wm-8">
          <mxGeometry width="80" relative="1" as="geometry">
            <mxPoint x="338" y="1820" as="sourcePoint" />
            <mxPoint x="530" y="1820" as="targetPoint" />
          </mxGeometry>
        </mxCell>
        <mxCell id="hn0zFCyBM_LwEXd8a6wm-19" value="Reject Validate" style="html=1;verticalAlign=bottom;endArrow=open;dashed=1;endSize=8;edgeStyle=elbowEdgeStyle;elbow=vertical;curved=0;rounded=0;" edge="1" parent="1" source="hn0zFCyBM_LwEXd8a6wm-4">
          <mxGeometry x="0.6385" y="-10" relative="1" as="geometry">
            <mxPoint x="422.5" y="1920" as="sourcePoint" />
            <mxPoint x="160" y="1870" as="targetPoint" />
            <mxPoint x="1" as="offset" />
          </mxGeometry>
        </mxCell>
        <mxCell id="hn0zFCyBM_LwEXd8a6wm-20" value="If Validation ok" style="html=1;verticalAlign=bottom;endArrow=block;edgeStyle=elbowEdgeStyle;elbow=vertical;curved=0;rounded=0;" edge="1" parent="1">
          <mxGeometry width="80" relative="1" as="geometry">
            <mxPoint x="540" y="1840" as="sourcePoint" />
            <mxPoint x="715" y="1840" as="targetPoint" />
          </mxGeometry>
        </mxCell>
        <mxCell id="hn0zFCyBM_LwEXd8a6wm-21" value="Result" style="html=1;verticalAlign=bottom;endArrow=open;dashed=1;endSize=8;edgeStyle=elbowEdgeStyle;elbow=vertical;curved=0;rounded=0;" edge="1" parent="1" source="hn0zFCyBM_LwEXd8a6wm-6">
          <mxGeometry x="0.0885" y="-10" relative="1" as="geometry">
            <mxPoint x="550" y="1920" as="sourcePoint" />
            <mxPoint x="160" y="1920" as="targetPoint" />
            <mxPoint x="1" as="offset" />
          </mxGeometry>
        </mxCell>
        <mxCell id="hn0zFCyBM_LwEXd8a6wm-22" value="User" style="text;html=1;align=center;verticalAlign=middle;resizable=0;points=[];autosize=1;strokeColor=none;fillColor=none;" vertex="1" parent="1">
          <mxGeometry x="125" y="1690" width="50" height="30" as="geometry" />
        </mxCell>
        <mxCell id="hn0zFCyBM_LwEXd8a6wm-37" value="" style="shape=umlLifeline;perimeter=lifelinePerimeter;whiteSpace=wrap;html=1;container=1;dropTarget=0;collapsible=0;recursiveResize=0;outlineConnect=0;portConstraint=eastwest;newEdgeStyle={&quot;edgeStyle&quot;:&quot;elbowEdgeStyle&quot;,&quot;elbow&quot;:&quot;vertical&quot;,&quot;curved&quot;:0,&quot;rounded&quot;:0};participant=umlActor;" vertex="1" parent="1">
          <mxGeometry x="135" y="2110" width="20" height="300" as="geometry" />
        </mxCell>
        <mxCell id="hn0zFCyBM_LwEXd8a6wm-38" value="" style="html=1;points=[];perimeter=orthogonalPerimeter;outlineConnect=0;targetShapes=umlLifeline;portConstraint=eastwest;newEdgeStyle={&quot;edgeStyle&quot;:&quot;elbowEdgeStyle&quot;,&quot;elbow&quot;:&quot;vertical&quot;,&quot;curved&quot;:0,&quot;rounded&quot;:0};" vertex="1" parent="hn0zFCyBM_LwEXd8a6wm-37">
          <mxGeometry x="5" y="70" width="10" height="160" as="geometry" />
        </mxCell>
        <mxCell id="hn0zFCyBM_LwEXd8a6wm-39" value="Balance Statement" style="shape=umlLifeline;perimeter=lifelinePerimeter;whiteSpace=wrap;html=1;container=1;dropTarget=0;collapsible=0;recursiveResize=0;outlineConnect=0;portConstraint=eastwest;newEdgeStyle={&quot;edgeStyle&quot;:&quot;elbowEdgeStyle&quot;,&quot;elbow&quot;:&quot;vertical&quot;,&quot;curved&quot;:0,&quot;rounded&quot;:0};" vertex="1" parent="1">
          <mxGeometry x="485" y="2110" width="100" height="300" as="geometry" />
        </mxCell>
        <mxCell id="hn0zFCyBM_LwEXd8a6wm-40" value="" style="html=1;points=[];perimeter=orthogonalPerimeter;outlineConnect=0;targetShapes=umlLifeline;portConstraint=eastwest;newEdgeStyle={&quot;edgeStyle&quot;:&quot;elbowEdgeStyle&quot;,&quot;elbow&quot;:&quot;vertical&quot;,&quot;curved&quot;:0,&quot;rounded&quot;:0};" vertex="1" parent="hn0zFCyBM_LwEXd8a6wm-39">
          <mxGeometry x="45" y="80" width="10" height="140" as="geometry" />
        </mxCell>
        <mxCell id="hn0zFCyBM_LwEXd8a6wm-41" value="Check Balance" style="shape=umlLifeline;perimeter=lifelinePerimeter;whiteSpace=wrap;html=1;container=1;dropTarget=0;collapsible=0;recursiveResize=0;outlineConnect=0;portConstraint=eastwest;newEdgeStyle={&quot;edgeStyle&quot;:&quot;elbowEdgeStyle&quot;,&quot;elbow&quot;:&quot;vertical&quot;,&quot;curved&quot;:0,&quot;rounded&quot;:0};" vertex="1" parent="1">
          <mxGeometry x="285" y="2110" width="100" height="300" as="geometry" />
        </mxCell>
        <mxCell id="hn0zFCyBM_LwEXd8a6wm-42" value="" style="html=1;points=[];perimeter=orthogonalPerimeter;outlineConnect=0;targetShapes=umlLifeline;portConstraint=eastwest;newEdgeStyle={&quot;edgeStyle&quot;:&quot;elbowEdgeStyle&quot;,&quot;elbow&quot;:&quot;vertical&quot;,&quot;curved&quot;:0,&quot;rounded&quot;:0};" vertex="1" parent="hn0zFCyBM_LwEXd8a6wm-41">
          <mxGeometry x="40" y="80" width="10" height="140" as="geometry" />
        </mxCell>
        <mxCell id="hn0zFCyBM_LwEXd8a6wm-43" value="Database" style="shape=umlLifeline;perimeter=lifelinePerimeter;whiteSpace=wrap;html=1;container=1;dropTarget=0;collapsible=0;recursiveResize=0;outlineConnect=0;portConstraint=eastwest;newEdgeStyle={&quot;edgeStyle&quot;:&quot;elbowEdgeStyle&quot;,&quot;elbow&quot;:&quot;vertical&quot;,&quot;curved&quot;:0,&quot;rounded&quot;:0};" vertex="1" parent="1">
          <mxGeometry x="665" y="2110" width="100" height="300" as="geometry" />
        </mxCell>
        <mxCell id="hn0zFCyBM_LwEXd8a6wm-44" value="" style="html=1;points=[];perimeter=orthogonalPerimeter;outlineConnect=0;targetShapes=umlLifeline;portConstraint=eastwest;newEdgeStyle={&quot;edgeStyle&quot;:&quot;elbowEdgeStyle&quot;,&quot;elbow&quot;:&quot;vertical&quot;,&quot;curved&quot;:0,&quot;rounded&quot;:0};" vertex="1" parent="hn0zFCyBM_LwEXd8a6wm-43">
          <mxGeometry x="45" y="80" width="10" height="140" as="geometry" />
        </mxCell>
        <mxCell id="hn0zFCyBM_LwEXd8a6wm-45" value="Send Request" style="html=1;verticalAlign=bottom;endArrow=block;edgeStyle=elbowEdgeStyle;elbow=vertical;curved=0;rounded=0;" edge="1" parent="1">
          <mxGeometry width="80" relative="1" as="geometry">
            <mxPoint x="150" y="2210" as="sourcePoint" />
            <mxPoint x="325" y="2210" as="targetPoint" />
          </mxGeometry>
        </mxCell>
        <mxCell id="hn0zFCyBM_LwEXd8a6wm-46" value="Check Balance Request" style="html=1;verticalAlign=bottom;endArrow=block;edgeStyle=elbowEdgeStyle;elbow=vertical;curved=0;rounded=0;" edge="1" parent="1" target="hn0zFCyBM_LwEXd8a6wm-40">
          <mxGeometry width="80" relative="1" as="geometry">
            <mxPoint x="333" y="2210" as="sourcePoint" />
            <mxPoint x="520" y="2210" as="targetPoint" />
          </mxGeometry>
        </mxCell>
        <mxCell id="hn0zFCyBM_LwEXd8a6wm-48" value="Request Balance" style="html=1;verticalAlign=bottom;endArrow=block;edgeStyle=elbowEdgeStyle;elbow=horizontal;curved=0;rounded=0;" edge="1" parent="1">
          <mxGeometry width="80" relative="1" as="geometry">
            <mxPoint x="535" y="2230" as="sourcePoint" />
            <mxPoint x="710" y="2230" as="targetPoint" />
          </mxGeometry>
        </mxCell>
        <mxCell id="hn0zFCyBM_LwEXd8a6wm-49" value="Result" style="html=1;verticalAlign=bottom;endArrow=open;dashed=1;endSize=8;edgeStyle=elbowEdgeStyle;elbow=vertical;curved=0;rounded=0;" edge="1" parent="1">
          <mxGeometry x="0.0885" y="-10" relative="1" as="geometry">
            <mxPoint x="710" y="2310" as="sourcePoint" />
            <mxPoint x="150.5" y="2310" as="targetPoint" />
            <mxPoint x="1" as="offset" />
          </mxGeometry>
        </mxCell>
        <mxCell id="hn0zFCyBM_LwEXd8a6wm-50" value="User" style="text;html=1;align=center;verticalAlign=middle;resizable=0;points=[];autosize=1;strokeColor=none;fillColor=none;" vertex="1" parent="1">
          <mxGeometry x="120" y="2080" width="50" height="30" as="geometry" />
        </mxCell>
        <mxCell id="nj2CWtm07xVQhuoVP-jK-1" value="" style="shape=umlLifeline;perimeter=lifelinePerimeter;whiteSpace=wrap;html=1;container=1;dropTarget=0;collapsible=0;recursiveResize=0;outlineConnect=0;portConstraint=eastwest;newEdgeStyle={&quot;edgeStyle&quot;:&quot;elbowEdgeStyle&quot;,&quot;elbow&quot;:&quot;vertical&quot;,&quot;curved&quot;:0,&quot;rounded&quot;:0};participant=umlActor;" vertex="1" parent="1">
          <mxGeometry x="135" y="2500" width="20" height="300" as="geometry" />
        </mxCell>
        <mxCell id="nj2CWtm07xVQhuoVP-jK-2" value="" style="html=1;points=[];perimeter=orthogonalPerimeter;outlineConnect=0;targetShapes=umlLifeline;portConstraint=eastwest;newEdgeStyle={&quot;edgeStyle&quot;:&quot;elbowEdgeStyle&quot;,&quot;elbow&quot;:&quot;vertical&quot;,&quot;curved&quot;:0,&quot;rounded&quot;:0};" vertex="1" parent="nj2CWtm07xVQhuoVP-jK-1">
          <mxGeometry x="5" y="70" width="10" height="170" as="geometry" />
        </mxCell>
        <mxCell id="nj2CWtm07xVQhuoVP-jK-3" value="Approval" style="shape=umlLifeline;perimeter=lifelinePerimeter;whiteSpace=wrap;html=1;container=1;dropTarget=0;collapsible=0;recursiveResize=0;outlineConnect=0;portConstraint=eastwest;newEdgeStyle={&quot;edgeStyle&quot;:&quot;elbowEdgeStyle&quot;,&quot;elbow&quot;:&quot;vertical&quot;,&quot;curved&quot;:0,&quot;rounded&quot;:0};" vertex="1" parent="1">
          <mxGeometry x="485" y="2500" width="100" height="300" as="geometry" />
        </mxCell>
        <mxCell id="nj2CWtm07xVQhuoVP-jK-4" value="" style="html=1;points=[];perimeter=orthogonalPerimeter;outlineConnect=0;targetShapes=umlLifeline;portConstraint=eastwest;newEdgeStyle={&quot;edgeStyle&quot;:&quot;elbowEdgeStyle&quot;,&quot;elbow&quot;:&quot;vertical&quot;,&quot;curved&quot;:0,&quot;rounded&quot;:0};" vertex="1" parent="nj2CWtm07xVQhuoVP-jK-3">
          <mxGeometry x="45" y="80" width="10" height="150" as="geometry" />
        </mxCell>
        <mxCell id="nj2CWtm07xVQhuoVP-jK-5" value="Loans" style="shape=umlLifeline;perimeter=lifelinePerimeter;whiteSpace=wrap;html=1;container=1;dropTarget=0;collapsible=0;recursiveResize=0;outlineConnect=0;portConstraint=eastwest;newEdgeStyle={&quot;edgeStyle&quot;:&quot;elbowEdgeStyle&quot;,&quot;elbow&quot;:&quot;vertical&quot;,&quot;curved&quot;:0,&quot;rounded&quot;:0};" vertex="1" parent="1">
          <mxGeometry x="285" y="2500" width="100" height="300" as="geometry" />
        </mxCell>
        <mxCell id="nj2CWtm07xVQhuoVP-jK-6" value="" style="html=1;points=[];perimeter=orthogonalPerimeter;outlineConnect=0;targetShapes=umlLifeline;portConstraint=eastwest;newEdgeStyle={&quot;edgeStyle&quot;:&quot;elbowEdgeStyle&quot;,&quot;elbow&quot;:&quot;vertical&quot;,&quot;curved&quot;:0,&quot;rounded&quot;:0};" vertex="1" parent="nj2CWtm07xVQhuoVP-jK-5">
          <mxGeometry x="40" y="80" width="10" height="150" as="geometry" />
        </mxCell>
        <mxCell id="nj2CWtm07xVQhuoVP-jK-7" value="Database" style="shape=umlLifeline;perimeter=lifelinePerimeter;whiteSpace=wrap;html=1;container=1;dropTarget=0;collapsible=0;recursiveResize=0;outlineConnect=0;portConstraint=eastwest;newEdgeStyle={&quot;edgeStyle&quot;:&quot;elbowEdgeStyle&quot;,&quot;elbow&quot;:&quot;vertical&quot;,&quot;curved&quot;:0,&quot;rounded&quot;:0};" vertex="1" parent="1">
          <mxGeometry x="665" y="2500" width="100" height="300" as="geometry" />
        </mxCell>
        <mxCell id="nj2CWtm07xVQhuoVP-jK-8" value="" style="html=1;points=[];perimeter=orthogonalPerimeter;outlineConnect=0;targetShapes=umlLifeline;portConstraint=eastwest;newEdgeStyle={&quot;edgeStyle&quot;:&quot;elbowEdgeStyle&quot;,&quot;elbow&quot;:&quot;vertical&quot;,&quot;curved&quot;:0,&quot;rounded&quot;:0};" vertex="1" parent="nj2CWtm07xVQhuoVP-jK-7">
          <mxGeometry x="45" y="80" width="10" height="150" as="geometry" />
        </mxCell>
        <mxCell id="nj2CWtm07xVQhuoVP-jK-9" value="Apply Loans" style="html=1;verticalAlign=bottom;endArrow=block;edgeStyle=elbowEdgeStyle;elbow=vertical;curved=0;rounded=0;" edge="1" parent="1">
          <mxGeometry width="80" relative="1" as="geometry">
            <mxPoint x="150" y="2600" as="sourcePoint" />
            <mxPoint x="325" y="2600" as="targetPoint" />
          </mxGeometry>
        </mxCell>
        <mxCell id="nj2CWtm07xVQhuoVP-jK-10" value="Approve Details" style="html=1;verticalAlign=bottom;endArrow=block;edgeStyle=elbowEdgeStyle;elbow=vertical;curved=0;rounded=0;" edge="1" parent="1" target="nj2CWtm07xVQhuoVP-jK-3">
          <mxGeometry width="80" relative="1" as="geometry">
            <mxPoint x="333" y="2600" as="sourcePoint" />
            <mxPoint x="525" y="2610" as="targetPoint" />
          </mxGeometry>
        </mxCell>
        <mxCell id="nj2CWtm07xVQhuoVP-jK-11" value="If approved&amp;nbsp; ok" style="html=1;verticalAlign=bottom;endArrow=block;edgeStyle=elbowEdgeStyle;elbow=horizontal;curved=0;rounded=0;" edge="1" parent="1">
          <mxGeometry width="80" relative="1" as="geometry">
            <mxPoint x="535" y="2620" as="sourcePoint" />
            <mxPoint x="710" y="2620" as="targetPoint" />
          </mxGeometry>
        </mxCell>
        <mxCell id="nj2CWtm07xVQhuoVP-jK-12" value="Result" style="html=1;verticalAlign=bottom;endArrow=open;dashed=1;endSize=8;edgeStyle=elbowEdgeStyle;elbow=vertical;curved=0;rounded=0;" edge="1" parent="1">
          <mxGeometry x="0.0885" y="-10" relative="1" as="geometry">
            <mxPoint x="710" y="2710" as="sourcePoint" />
            <mxPoint x="150.5" y="2710" as="targetPoint" />
            <mxPoint x="1" as="offset" />
          </mxGeometry>
        </mxCell>
        <mxCell id="nj2CWtm07xVQhuoVP-jK-13" value="User" style="text;html=1;align=center;verticalAlign=middle;resizable=0;points=[];autosize=1;strokeColor=none;fillColor=none;" vertex="1" parent="1">
          <mxGeometry x="120" y="2470" width="50" height="30" as="geometry" />
        </mxCell>
        <mxCell id="nj2CWtm07xVQhuoVP-jK-14" value="Reject Loans" style="html=1;verticalAlign=bottom;endArrow=open;dashed=1;endSize=8;edgeStyle=elbowEdgeStyle;elbow=vertical;curved=0;rounded=0;" edge="1" parent="1">
          <mxGeometry x="0.4756" y="-10" relative="1" as="geometry">
            <mxPoint x="530" y="2670" as="sourcePoint" />
            <mxPoint x="150.5" y="2670" as="targetPoint" />
            <mxPoint as="offset" />
          </mxGeometry>
        </mxCell>
        <mxCell id="nj2CWtm07xVQhuoVP-jK-15" value="" style="shape=umlLifeline;perimeter=lifelinePerimeter;whiteSpace=wrap;html=1;container=1;dropTarget=0;collapsible=0;recursiveResize=0;outlineConnect=0;portConstraint=eastwest;newEdgeStyle={&quot;edgeStyle&quot;:&quot;elbowEdgeStyle&quot;,&quot;elbow&quot;:&quot;vertical&quot;,&quot;curved&quot;:0,&quot;rounded&quot;:0};participant=umlActor;" vertex="1" parent="1">
          <mxGeometry x="135" y="2870" width="20" height="300" as="geometry" />
        </mxCell>
        <mxCell id="nj2CWtm07xVQhuoVP-jK-16" value="" style="html=1;points=[];perimeter=orthogonalPerimeter;outlineConnect=0;targetShapes=umlLifeline;portConstraint=eastwest;newEdgeStyle={&quot;edgeStyle&quot;:&quot;elbowEdgeStyle&quot;,&quot;elbow&quot;:&quot;vertical&quot;,&quot;curved&quot;:0,&quot;rounded&quot;:0};" vertex="1" parent="nj2CWtm07xVQhuoVP-jK-15">
          <mxGeometry x="5" y="70" width="10" height="160" as="geometry" />
        </mxCell>
        <mxCell id="nj2CWtm07xVQhuoVP-jK-17" value="Bank system" style="shape=umlLifeline;perimeter=lifelinePerimeter;whiteSpace=wrap;html=1;container=1;dropTarget=0;collapsible=0;recursiveResize=0;outlineConnect=0;portConstraint=eastwest;newEdgeStyle={&quot;edgeStyle&quot;:&quot;elbowEdgeStyle&quot;,&quot;elbow&quot;:&quot;vertical&quot;,&quot;curved&quot;:0,&quot;rounded&quot;:0};" vertex="1" parent="1">
          <mxGeometry x="485" y="2870" width="100" height="300" as="geometry" />
        </mxCell>
        <mxCell id="nj2CWtm07xVQhuoVP-jK-18" value="" style="html=1;points=[];perimeter=orthogonalPerimeter;outlineConnect=0;targetShapes=umlLifeline;portConstraint=eastwest;newEdgeStyle={&quot;edgeStyle&quot;:&quot;elbowEdgeStyle&quot;,&quot;elbow&quot;:&quot;vertical&quot;,&quot;curved&quot;:0,&quot;rounded&quot;:0};" vertex="1" parent="nj2CWtm07xVQhuoVP-jK-17">
          <mxGeometry x="45" y="80" width="10" height="140" as="geometry" />
        </mxCell>
        <mxCell id="nj2CWtm07xVQhuoVP-jK-19" value="Deposit Money" style="shape=umlLifeline;perimeter=lifelinePerimeter;whiteSpace=wrap;html=1;container=1;dropTarget=0;collapsible=0;recursiveResize=0;outlineConnect=0;portConstraint=eastwest;newEdgeStyle={&quot;edgeStyle&quot;:&quot;elbowEdgeStyle&quot;,&quot;elbow&quot;:&quot;vertical&quot;,&quot;curved&quot;:0,&quot;rounded&quot;:0};" vertex="1" parent="1">
          <mxGeometry x="285" y="2870" width="100" height="300" as="geometry" />
        </mxCell>
        <mxCell id="nj2CWtm07xVQhuoVP-jK-20" value="" style="html=1;points=[];perimeter=orthogonalPerimeter;outlineConnect=0;targetShapes=umlLifeline;portConstraint=eastwest;newEdgeStyle={&quot;edgeStyle&quot;:&quot;elbowEdgeStyle&quot;,&quot;elbow&quot;:&quot;vertical&quot;,&quot;curved&quot;:0,&quot;rounded&quot;:0};" vertex="1" parent="nj2CWtm07xVQhuoVP-jK-19">
          <mxGeometry x="40" y="80" width="10" height="140" as="geometry" />
        </mxCell>
        <mxCell id="nj2CWtm07xVQhuoVP-jK-21" value="Database" style="shape=umlLifeline;perimeter=lifelinePerimeter;whiteSpace=wrap;html=1;container=1;dropTarget=0;collapsible=0;recursiveResize=0;outlineConnect=0;portConstraint=eastwest;newEdgeStyle={&quot;edgeStyle&quot;:&quot;elbowEdgeStyle&quot;,&quot;elbow&quot;:&quot;vertical&quot;,&quot;curved&quot;:0,&quot;rounded&quot;:0};" vertex="1" parent="1">
          <mxGeometry x="665" y="2870" width="100" height="300" as="geometry" />
        </mxCell>
        <mxCell id="nj2CWtm07xVQhuoVP-jK-22" value="" style="html=1;points=[];perimeter=orthogonalPerimeter;outlineConnect=0;targetShapes=umlLifeline;portConstraint=eastwest;newEdgeStyle={&quot;edgeStyle&quot;:&quot;elbowEdgeStyle&quot;,&quot;elbow&quot;:&quot;vertical&quot;,&quot;curved&quot;:0,&quot;rounded&quot;:0};" vertex="1" parent="nj2CWtm07xVQhuoVP-jK-21">
          <mxGeometry x="45" y="80" width="10" height="140" as="geometry" />
        </mxCell>
        <mxCell id="nj2CWtm07xVQhuoVP-jK-23" value="deposit money" style="html=1;verticalAlign=bottom;endArrow=block;edgeStyle=elbowEdgeStyle;elbow=vertical;curved=0;rounded=0;" edge="1" parent="1">
          <mxGeometry width="80" relative="1" as="geometry">
            <mxPoint x="150" y="2970" as="sourcePoint" />
            <mxPoint x="325" y="2970" as="targetPoint" />
          </mxGeometry>
        </mxCell>
        <mxCell id="nj2CWtm07xVQhuoVP-jK-24" value="update balance" style="html=1;verticalAlign=bottom;endArrow=block;edgeStyle=elbowEdgeStyle;elbow=vertical;curved=0;rounded=0;" edge="1" parent="1" target="nj2CWtm07xVQhuoVP-jK-18">
          <mxGeometry width="80" relative="1" as="geometry">
            <mxPoint x="333" y="2970" as="sourcePoint" />
            <mxPoint x="525" y="2970" as="targetPoint" />
          </mxGeometry>
        </mxCell>
        <mxCell id="nj2CWtm07xVQhuoVP-jK-26" value="Store in db" style="html=1;verticalAlign=bottom;endArrow=block;edgeStyle=elbowEdgeStyle;elbow=vertical;curved=0;rounded=0;" edge="1" parent="1">
          <mxGeometry width="80" relative="1" as="geometry">
            <mxPoint x="535" y="2990" as="sourcePoint" />
            <mxPoint x="710" y="2990" as="targetPoint" />
          </mxGeometry>
        </mxCell>
        <mxCell id="nj2CWtm07xVQhuoVP-jK-27" value="Result" style="html=1;verticalAlign=bottom;endArrow=open;dashed=1;endSize=8;edgeStyle=elbowEdgeStyle;elbow=vertical;curved=0;rounded=0;" edge="1" parent="1" source="nj2CWtm07xVQhuoVP-jK-21">
          <mxGeometry x="0.0885" y="-10" relative="1" as="geometry">
            <mxPoint x="545" y="3070" as="sourcePoint" />
            <mxPoint x="155" y="3070" as="targetPoint" />
            <mxPoint x="1" as="offset" />
          </mxGeometry>
        </mxCell>
        <mxCell id="nj2CWtm07xVQhuoVP-jK-28" value="User" style="text;html=1;align=center;verticalAlign=middle;resizable=0;points=[];autosize=1;strokeColor=none;fillColor=none;" vertex="1" parent="1">
          <mxGeometry x="120" y="2840" width="50" height="30" as="geometry" />
        </mxCell>
        <mxCell id="nj2CWtm07xVQhuoVP-jK-29" value="" style="shape=umlLifeline;perimeter=lifelinePerimeter;whiteSpace=wrap;html=1;container=1;dropTarget=0;collapsible=0;recursiveResize=0;outlineConnect=0;portConstraint=eastwest;newEdgeStyle={&quot;edgeStyle&quot;:&quot;elbowEdgeStyle&quot;,&quot;elbow&quot;:&quot;vertical&quot;,&quot;curved&quot;:0,&quot;rounded&quot;:0};participant=umlActor;" vertex="1" parent="1">
          <mxGeometry x="135" y="3220" width="20" height="300" as="geometry" />
        </mxCell>
        <mxCell id="nj2CWtm07xVQhuoVP-jK-30" value="" style="html=1;points=[];perimeter=orthogonalPerimeter;outlineConnect=0;targetShapes=umlLifeline;portConstraint=eastwest;newEdgeStyle={&quot;edgeStyle&quot;:&quot;elbowEdgeStyle&quot;,&quot;elbow&quot;:&quot;vertical&quot;,&quot;curved&quot;:0,&quot;rounded&quot;:0};" vertex="1" parent="nj2CWtm07xVQhuoVP-jK-29">
          <mxGeometry x="5" y="70" width="10" height="160" as="geometry" />
        </mxCell>
        <mxCell id="nj2CWtm07xVQhuoVP-jK-31" value="Validation" style="shape=umlLifeline;perimeter=lifelinePerimeter;whiteSpace=wrap;html=1;container=1;dropTarget=0;collapsible=0;recursiveResize=0;outlineConnect=0;portConstraint=eastwest;newEdgeStyle={&quot;edgeStyle&quot;:&quot;elbowEdgeStyle&quot;,&quot;elbow&quot;:&quot;vertical&quot;,&quot;curved&quot;:0,&quot;rounded&quot;:0};" vertex="1" parent="1">
          <mxGeometry x="485" y="3220" width="100" height="300" as="geometry" />
        </mxCell>
        <mxCell id="nj2CWtm07xVQhuoVP-jK-32" value="" style="html=1;points=[];perimeter=orthogonalPerimeter;outlineConnect=0;targetShapes=umlLifeline;portConstraint=eastwest;newEdgeStyle={&quot;edgeStyle&quot;:&quot;elbowEdgeStyle&quot;,&quot;elbow&quot;:&quot;vertical&quot;,&quot;curved&quot;:0,&quot;rounded&quot;:0};" vertex="1" parent="nj2CWtm07xVQhuoVP-jK-31">
          <mxGeometry x="45" y="80" width="10" height="140" as="geometry" />
        </mxCell>
        <mxCell id="nj2CWtm07xVQhuoVP-jK-33" value="Withdraw money" style="shape=umlLifeline;perimeter=lifelinePerimeter;whiteSpace=wrap;html=1;container=1;dropTarget=0;collapsible=0;recursiveResize=0;outlineConnect=0;portConstraint=eastwest;newEdgeStyle={&quot;edgeStyle&quot;:&quot;elbowEdgeStyle&quot;,&quot;elbow&quot;:&quot;vertical&quot;,&quot;curved&quot;:0,&quot;rounded&quot;:0};" vertex="1" parent="1">
          <mxGeometry x="285" y="3220" width="100" height="300" as="geometry" />
        </mxCell>
        <mxCell id="nj2CWtm07xVQhuoVP-jK-34" value="" style="html=1;points=[];perimeter=orthogonalPerimeter;outlineConnect=0;targetShapes=umlLifeline;portConstraint=eastwest;newEdgeStyle={&quot;edgeStyle&quot;:&quot;elbowEdgeStyle&quot;,&quot;elbow&quot;:&quot;vertical&quot;,&quot;curved&quot;:0,&quot;rounded&quot;:0};" vertex="1" parent="nj2CWtm07xVQhuoVP-jK-33">
          <mxGeometry x="40" y="80" width="10" height="140" as="geometry" />
        </mxCell>
        <mxCell id="nj2CWtm07xVQhuoVP-jK-35" value="BankSystem" style="shape=umlLifeline;perimeter=lifelinePerimeter;whiteSpace=wrap;html=1;container=1;dropTarget=0;collapsible=0;recursiveResize=0;outlineConnect=0;portConstraint=eastwest;newEdgeStyle={&quot;edgeStyle&quot;:&quot;elbowEdgeStyle&quot;,&quot;elbow&quot;:&quot;vertical&quot;,&quot;curved&quot;:0,&quot;rounded&quot;:0};" vertex="1" parent="1">
          <mxGeometry x="665" y="3220" width="100" height="300" as="geometry" />
        </mxCell>
        <mxCell id="nj2CWtm07xVQhuoVP-jK-36" value="" style="html=1;points=[];perimeter=orthogonalPerimeter;outlineConnect=0;targetShapes=umlLifeline;portConstraint=eastwest;newEdgeStyle={&quot;edgeStyle&quot;:&quot;elbowEdgeStyle&quot;,&quot;elbow&quot;:&quot;vertical&quot;,&quot;curved&quot;:0,&quot;rounded&quot;:0};" vertex="1" parent="nj2CWtm07xVQhuoVP-jK-35">
          <mxGeometry x="45" y="80" width="10" height="140" as="geometry" />
        </mxCell>
        <mxCell id="nj2CWtm07xVQhuoVP-jK-37" value="Send withdraw request" style="html=1;verticalAlign=bottom;endArrow=block;edgeStyle=elbowEdgeStyle;elbow=vertical;curved=0;rounded=0;" edge="1" parent="1">
          <mxGeometry width="80" relative="1" as="geometry">
            <mxPoint x="150" y="3320" as="sourcePoint" />
            <mxPoint x="325" y="3320" as="targetPoint" />
          </mxGeometry>
        </mxCell>
        <mxCell id="nj2CWtm07xVQhuoVP-jK-38" value="validate the account" style="html=1;verticalAlign=bottom;endArrow=block;edgeStyle=elbowEdgeStyle;elbow=vertical;curved=0;rounded=0;" edge="1" parent="1" target="nj2CWtm07xVQhuoVP-jK-32">
          <mxGeometry width="80" relative="1" as="geometry">
            <mxPoint x="333" y="3320" as="sourcePoint" />
            <mxPoint x="525" y="3320" as="targetPoint" />
          </mxGeometry>
        </mxCell>
        <mxCell id="nj2CWtm07xVQhuoVP-jK-39" value="Reject Validate" style="html=1;verticalAlign=bottom;endArrow=open;dashed=1;endSize=8;edgeStyle=elbowEdgeStyle;elbow=vertical;curved=0;rounded=0;" edge="1" parent="1" source="nj2CWtm07xVQhuoVP-jK-31">
          <mxGeometry x="0.6385" y="-10" relative="1" as="geometry">
            <mxPoint x="417.5" y="3420" as="sourcePoint" />
            <mxPoint x="155" y="3370" as="targetPoint" />
            <mxPoint x="1" as="offset" />
          </mxGeometry>
        </mxCell>
        <mxCell id="nj2CWtm07xVQhuoVP-jK-40" value="If validation&amp;nbsp; ok" style="html=1;verticalAlign=bottom;endArrow=block;edgeStyle=elbowEdgeStyle;elbow=vertical;curved=0;rounded=0;" edge="1" parent="1">
          <mxGeometry width="80" relative="1" as="geometry">
            <mxPoint x="535" y="3340" as="sourcePoint" />
            <mxPoint x="710" y="3340" as="targetPoint" />
          </mxGeometry>
        </mxCell>
        <mxCell id="nj2CWtm07xVQhuoVP-jK-41" value="withdraw money released" style="html=1;verticalAlign=bottom;endArrow=open;dashed=1;endSize=8;edgeStyle=elbowEdgeStyle;elbow=vertical;curved=0;rounded=0;" edge="1" parent="1" source="nj2CWtm07xVQhuoVP-jK-35">
          <mxGeometry x="0.0885" y="-10" relative="1" as="geometry">
            <mxPoint x="545" y="3420" as="sourcePoint" />
            <mxPoint x="155" y="3420" as="targetPoint" />
            <mxPoint x="1" as="offset" />
          </mxGeometry>
        </mxCell>
        <mxCell id="nj2CWtm07xVQhuoVP-jK-42" value="User" style="text;html=1;align=center;verticalAlign=middle;resizable=0;points=[];autosize=1;strokeColor=none;fillColor=none;" vertex="1" parent="1">
          <mxGeometry x="120" y="3190" width="50" height="30" as="geometry" />
        </mxCell>
        <mxCell id="nj2CWtm07xVQhuoVP-jK-43" value="" style="shape=umlLifeline;perimeter=lifelinePerimeter;whiteSpace=wrap;html=1;container=1;dropTarget=0;collapsible=0;recursiveResize=0;outlineConnect=0;portConstraint=eastwest;newEdgeStyle={&quot;edgeStyle&quot;:&quot;elbowEdgeStyle&quot;,&quot;elbow&quot;:&quot;vertical&quot;,&quot;curved&quot;:0,&quot;rounded&quot;:0};participant=umlActor;" vertex="1" parent="1">
          <mxGeometry x="855" y="1750" width="20" height="300" as="geometry" />
        </mxCell>
        <mxCell id="nj2CWtm07xVQhuoVP-jK-44" value="" style="html=1;points=[];perimeter=orthogonalPerimeter;outlineConnect=0;targetShapes=umlLifeline;portConstraint=eastwest;newEdgeStyle={&quot;edgeStyle&quot;:&quot;elbowEdgeStyle&quot;,&quot;elbow&quot;:&quot;vertical&quot;,&quot;curved&quot;:0,&quot;rounded&quot;:0};" vertex="1" parent="nj2CWtm07xVQhuoVP-jK-43">
          <mxGeometry x="5" y="70" width="10" height="160" as="geometry" />
        </mxCell>
        <mxCell id="nj2CWtm07xVQhuoVP-jK-45" value="Validate" style="shape=umlLifeline;perimeter=lifelinePerimeter;whiteSpace=wrap;html=1;container=1;dropTarget=0;collapsible=0;recursiveResize=0;outlineConnect=0;portConstraint=eastwest;newEdgeStyle={&quot;edgeStyle&quot;:&quot;elbowEdgeStyle&quot;,&quot;elbow&quot;:&quot;vertical&quot;,&quot;curved&quot;:0,&quot;rounded&quot;:0};" vertex="1" parent="1">
          <mxGeometry x="1205" y="1750" width="100" height="300" as="geometry" />
        </mxCell>
        <mxCell id="nj2CWtm07xVQhuoVP-jK-46" value="" style="html=1;points=[];perimeter=orthogonalPerimeter;outlineConnect=0;targetShapes=umlLifeline;portConstraint=eastwest;newEdgeStyle={&quot;edgeStyle&quot;:&quot;elbowEdgeStyle&quot;,&quot;elbow&quot;:&quot;vertical&quot;,&quot;curved&quot;:0,&quot;rounded&quot;:0};" vertex="1" parent="nj2CWtm07xVQhuoVP-jK-45">
          <mxGeometry x="45" y="80" width="10" height="140" as="geometry" />
        </mxCell>
        <mxCell id="nj2CWtm07xVQhuoVP-jK-47" value="Saving Account" style="shape=umlLifeline;perimeter=lifelinePerimeter;whiteSpace=wrap;html=1;container=1;dropTarget=0;collapsible=0;recursiveResize=0;outlineConnect=0;portConstraint=eastwest;newEdgeStyle={&quot;edgeStyle&quot;:&quot;elbowEdgeStyle&quot;,&quot;elbow&quot;:&quot;vertical&quot;,&quot;curved&quot;:0,&quot;rounded&quot;:0};" vertex="1" parent="1">
          <mxGeometry x="1005" y="1750" width="100" height="300" as="geometry" />
        </mxCell>
        <mxCell id="nj2CWtm07xVQhuoVP-jK-48" value="" style="html=1;points=[];perimeter=orthogonalPerimeter;outlineConnect=0;targetShapes=umlLifeline;portConstraint=eastwest;newEdgeStyle={&quot;edgeStyle&quot;:&quot;elbowEdgeStyle&quot;,&quot;elbow&quot;:&quot;vertical&quot;,&quot;curved&quot;:0,&quot;rounded&quot;:0};" vertex="1" parent="nj2CWtm07xVQhuoVP-jK-47">
          <mxGeometry x="40" y="80" width="10" height="140" as="geometry" />
        </mxCell>
        <mxCell id="nj2CWtm07xVQhuoVP-jK-49" value="Database" style="shape=umlLifeline;perimeter=lifelinePerimeter;whiteSpace=wrap;html=1;container=1;dropTarget=0;collapsible=0;recursiveResize=0;outlineConnect=0;portConstraint=eastwest;newEdgeStyle={&quot;edgeStyle&quot;:&quot;elbowEdgeStyle&quot;,&quot;elbow&quot;:&quot;vertical&quot;,&quot;curved&quot;:0,&quot;rounded&quot;:0};" vertex="1" parent="1">
          <mxGeometry x="1385" y="1750" width="100" height="300" as="geometry" />
        </mxCell>
        <mxCell id="nj2CWtm07xVQhuoVP-jK-50" value="" style="html=1;points=[];perimeter=orthogonalPerimeter;outlineConnect=0;targetShapes=umlLifeline;portConstraint=eastwest;newEdgeStyle={&quot;edgeStyle&quot;:&quot;elbowEdgeStyle&quot;,&quot;elbow&quot;:&quot;vertical&quot;,&quot;curved&quot;:0,&quot;rounded&quot;:0};" vertex="1" parent="nj2CWtm07xVQhuoVP-jK-49">
          <mxGeometry x="45" y="80" width="10" height="140" as="geometry" />
        </mxCell>
        <mxCell id="nj2CWtm07xVQhuoVP-jK-51" value="Send Details" style="html=1;verticalAlign=bottom;endArrow=block;edgeStyle=elbowEdgeStyle;elbow=vertical;curved=0;rounded=0;" edge="1" parent="1">
          <mxGeometry width="80" relative="1" as="geometry">
            <mxPoint x="870" y="1850" as="sourcePoint" />
            <mxPoint x="1045" y="1850" as="targetPoint" />
          </mxGeometry>
        </mxCell>
        <mxCell id="nj2CWtm07xVQhuoVP-jK-52" value="Validate Details" style="html=1;verticalAlign=bottom;endArrow=block;edgeStyle=elbowEdgeStyle;elbow=vertical;curved=0;rounded=0;" edge="1" parent="1" target="nj2CWtm07xVQhuoVP-jK-46">
          <mxGeometry width="80" relative="1" as="geometry">
            <mxPoint x="1053" y="1850" as="sourcePoint" />
            <mxPoint x="1245" y="1850" as="targetPoint" />
          </mxGeometry>
        </mxCell>
        <mxCell id="nj2CWtm07xVQhuoVP-jK-53" value="Reject Validate" style="html=1;verticalAlign=bottom;endArrow=open;dashed=1;endSize=8;edgeStyle=elbowEdgeStyle;elbow=vertical;curved=0;rounded=0;" edge="1" parent="1" source="nj2CWtm07xVQhuoVP-jK-45">
          <mxGeometry x="0.6385" y="-10" relative="1" as="geometry">
            <mxPoint x="1137.5" y="1950" as="sourcePoint" />
            <mxPoint x="875" y="1900" as="targetPoint" />
            <mxPoint x="1" as="offset" />
          </mxGeometry>
        </mxCell>
        <mxCell id="nj2CWtm07xVQhuoVP-jK-54" value="If Validation ok" style="html=1;verticalAlign=bottom;endArrow=block;edgeStyle=elbowEdgeStyle;elbow=vertical;curved=0;rounded=0;" edge="1" parent="1">
          <mxGeometry width="80" relative="1" as="geometry">
            <mxPoint x="1255" y="1870" as="sourcePoint" />
            <mxPoint x="1430" y="1870" as="targetPoint" />
          </mxGeometry>
        </mxCell>
        <mxCell id="nj2CWtm07xVQhuoVP-jK-55" value="Result" style="html=1;verticalAlign=bottom;endArrow=open;dashed=1;endSize=8;edgeStyle=elbowEdgeStyle;elbow=vertical;curved=0;rounded=0;" edge="1" parent="1" source="nj2CWtm07xVQhuoVP-jK-49">
          <mxGeometry x="0.0885" y="-10" relative="1" as="geometry">
            <mxPoint x="1265" y="1950" as="sourcePoint" />
            <mxPoint x="875" y="1950" as="targetPoint" />
            <mxPoint x="1" as="offset" />
          </mxGeometry>
        </mxCell>
        <mxCell id="nj2CWtm07xVQhuoVP-jK-56" value="User" style="text;html=1;align=center;verticalAlign=middle;resizable=0;points=[];autosize=1;strokeColor=none;fillColor=none;" vertex="1" parent="1">
          <mxGeometry x="840" y="1720" width="50" height="30" as="geometry" />
        </mxCell>
        <mxCell id="nj2CWtm07xVQhuoVP-jK-57" value="" style="shape=umlLifeline;perimeter=lifelinePerimeter;whiteSpace=wrap;html=1;container=1;dropTarget=0;collapsible=0;recursiveResize=0;outlineConnect=0;portConstraint=eastwest;newEdgeStyle={&quot;edgeStyle&quot;:&quot;elbowEdgeStyle&quot;,&quot;elbow&quot;:&quot;vertical&quot;,&quot;curved&quot;:0,&quot;rounded&quot;:0};participant=umlActor;" vertex="1" parent="1">
          <mxGeometry x="845" y="2110" width="20" height="300" as="geometry" />
        </mxCell>
        <mxCell id="nj2CWtm07xVQhuoVP-jK-58" value="" style="html=1;points=[];perimeter=orthogonalPerimeter;outlineConnect=0;targetShapes=umlLifeline;portConstraint=eastwest;newEdgeStyle={&quot;edgeStyle&quot;:&quot;elbowEdgeStyle&quot;,&quot;elbow&quot;:&quot;vertical&quot;,&quot;curved&quot;:0,&quot;rounded&quot;:0};" vertex="1" parent="nj2CWtm07xVQhuoVP-jK-57">
          <mxGeometry x="5" y="70" width="10" height="160" as="geometry" />
        </mxCell>
        <mxCell id="nj2CWtm07xVQhuoVP-jK-59" value="Bank Server" style="shape=umlLifeline;perimeter=lifelinePerimeter;whiteSpace=wrap;html=1;container=1;dropTarget=0;collapsible=0;recursiveResize=0;outlineConnect=0;portConstraint=eastwest;newEdgeStyle={&quot;edgeStyle&quot;:&quot;elbowEdgeStyle&quot;,&quot;elbow&quot;:&quot;vertical&quot;,&quot;curved&quot;:0,&quot;rounded&quot;:0};" vertex="1" parent="1">
          <mxGeometry x="1195" y="2110" width="100" height="300" as="geometry" />
        </mxCell>
        <mxCell id="nj2CWtm07xVQhuoVP-jK-60" value="" style="html=1;points=[];perimeter=orthogonalPerimeter;outlineConnect=0;targetShapes=umlLifeline;portConstraint=eastwest;newEdgeStyle={&quot;edgeStyle&quot;:&quot;elbowEdgeStyle&quot;,&quot;elbow&quot;:&quot;vertical&quot;,&quot;curved&quot;:0,&quot;rounded&quot;:0};" vertex="1" parent="nj2CWtm07xVQhuoVP-jK-59">
          <mxGeometry x="45" y="80" width="10" height="140" as="geometry" />
        </mxCell>
        <mxCell id="nj2CWtm07xVQhuoVP-jK-61" value="Transfer money" style="shape=umlLifeline;perimeter=lifelinePerimeter;whiteSpace=wrap;html=1;container=1;dropTarget=0;collapsible=0;recursiveResize=0;outlineConnect=0;portConstraint=eastwest;newEdgeStyle={&quot;edgeStyle&quot;:&quot;elbowEdgeStyle&quot;,&quot;elbow&quot;:&quot;vertical&quot;,&quot;curved&quot;:0,&quot;rounded&quot;:0};" vertex="1" parent="1">
          <mxGeometry x="995" y="2110" width="100" height="300" as="geometry" />
        </mxCell>
        <mxCell id="nj2CWtm07xVQhuoVP-jK-62" value="" style="html=1;points=[];perimeter=orthogonalPerimeter;outlineConnect=0;targetShapes=umlLifeline;portConstraint=eastwest;newEdgeStyle={&quot;edgeStyle&quot;:&quot;elbowEdgeStyle&quot;,&quot;elbow&quot;:&quot;vertical&quot;,&quot;curved&quot;:0,&quot;rounded&quot;:0};" vertex="1" parent="nj2CWtm07xVQhuoVP-jK-61">
          <mxGeometry x="40" y="80" width="10" height="140" as="geometry" />
        </mxCell>
        <mxCell id="nj2CWtm07xVQhuoVP-jK-63" value="Database" style="shape=umlLifeline;perimeter=lifelinePerimeter;whiteSpace=wrap;html=1;container=1;dropTarget=0;collapsible=0;recursiveResize=0;outlineConnect=0;portConstraint=eastwest;newEdgeStyle={&quot;edgeStyle&quot;:&quot;elbowEdgeStyle&quot;,&quot;elbow&quot;:&quot;vertical&quot;,&quot;curved&quot;:0,&quot;rounded&quot;:0};" vertex="1" parent="1">
          <mxGeometry x="1375" y="2110" width="100" height="300" as="geometry" />
        </mxCell>
        <mxCell id="nj2CWtm07xVQhuoVP-jK-64" value="" style="html=1;points=[];perimeter=orthogonalPerimeter;outlineConnect=0;targetShapes=umlLifeline;portConstraint=eastwest;newEdgeStyle={&quot;edgeStyle&quot;:&quot;elbowEdgeStyle&quot;,&quot;elbow&quot;:&quot;vertical&quot;,&quot;curved&quot;:0,&quot;rounded&quot;:0};" vertex="1" parent="nj2CWtm07xVQhuoVP-jK-63">
          <mxGeometry x="45" y="80" width="10" height="140" as="geometry" />
        </mxCell>
        <mxCell id="nj2CWtm07xVQhuoVP-jK-65" value="send money" style="html=1;verticalAlign=bottom;endArrow=block;edgeStyle=elbowEdgeStyle;elbow=vertical;curved=0;rounded=0;" edge="1" parent="1">
          <mxGeometry width="80" relative="1" as="geometry">
            <mxPoint x="860" y="2210" as="sourcePoint" />
            <mxPoint x="1035" y="2210" as="targetPoint" />
          </mxGeometry>
        </mxCell>
        <mxCell id="nj2CWtm07xVQhuoVP-jK-66" value="Process request" style="html=1;verticalAlign=bottom;endArrow=block;edgeStyle=elbowEdgeStyle;elbow=vertical;curved=0;rounded=0;" edge="1" parent="1" target="nj2CWtm07xVQhuoVP-jK-60">
          <mxGeometry width="80" relative="1" as="geometry">
            <mxPoint x="1043" y="2210" as="sourcePoint" />
            <mxPoint x="1235" y="2210" as="targetPoint" />
          </mxGeometry>
        </mxCell>
        <mxCell id="nj2CWtm07xVQhuoVP-jK-67" value="Reject Request" style="html=1;verticalAlign=bottom;endArrow=open;dashed=1;endSize=8;edgeStyle=elbowEdgeStyle;elbow=vertical;curved=0;rounded=0;" edge="1" parent="1" source="nj2CWtm07xVQhuoVP-jK-59">
          <mxGeometry x="0.6385" y="-10" relative="1" as="geometry">
            <mxPoint x="1127.5" y="2310" as="sourcePoint" />
            <mxPoint x="865" y="2260" as="targetPoint" />
            <mxPoint x="1" as="offset" />
          </mxGeometry>
        </mxCell>
        <mxCell id="nj2CWtm07xVQhuoVP-jK-68" value="Transfer complete" style="html=1;verticalAlign=bottom;endArrow=block;edgeStyle=elbowEdgeStyle;elbow=vertical;curved=0;rounded=0;" edge="1" parent="1">
          <mxGeometry width="80" relative="1" as="geometry">
            <mxPoint x="1245" y="2230" as="sourcePoint" />
            <mxPoint x="1420" y="2230" as="targetPoint" />
          </mxGeometry>
        </mxCell>
        <mxCell id="nj2CWtm07xVQhuoVP-jK-69" value="Result" style="html=1;verticalAlign=bottom;endArrow=open;dashed=1;endSize=8;edgeStyle=elbowEdgeStyle;elbow=vertical;curved=0;rounded=0;" edge="1" parent="1" source="nj2CWtm07xVQhuoVP-jK-63">
          <mxGeometry x="0.0885" y="-10" relative="1" as="geometry">
            <mxPoint x="1255" y="2310" as="sourcePoint" />
            <mxPoint x="865" y="2310" as="targetPoint" />
            <mxPoint x="1" as="offset" />
          </mxGeometry>
        </mxCell>
        <mxCell id="nj2CWtm07xVQhuoVP-jK-70" value="User" style="text;html=1;align=center;verticalAlign=middle;resizable=0;points=[];autosize=1;strokeColor=none;fillColor=none;" vertex="1" parent="1">
          <mxGeometry x="830" y="2080" width="50" height="30" as="geometry" />
        </mxCell>
        <mxCell id="oPA-yFhTShfLPVLjbNMD-1" value="" style="ellipse;html=1;shape=startState;fillColor=#000000;strokeColor=#ff0000;" vertex="1" parent="1">
          <mxGeometry x="140" y="3650" width="30" height="30" as="geometry" />
        </mxCell>
        <mxCell id="oPA-yFhTShfLPVLjbNMD-2" value="" style="edgeStyle=orthogonalEdgeStyle;html=1;verticalAlign=bottom;endArrow=open;endSize=8;strokeColor=#ff0000;rounded=0;" edge="1" parent="1" source="oPA-yFhTShfLPVLjbNMD-1">
          <mxGeometry relative="1" as="geometry">
            <mxPoint x="210" y="3665" as="targetPoint" />
          </mxGeometry>
        </mxCell>
        <mxCell id="oPA-yFhTShfLPVLjbNMD-8" value="create account" style="rounded=1;whiteSpace=wrap;html=1;arcSize=40;fontColor=#000000;fillColor=#ffffc0;strokeColor=#ff0000;" vertex="1" parent="1">
          <mxGeometry x="210" y="3645" width="120" height="40" as="geometry" />
        </mxCell>
        <mxCell id="oPA-yFhTShfLPVLjbNMD-9" value="" style="edgeStyle=orthogonalEdgeStyle;html=1;verticalAlign=bottom;endArrow=open;endSize=8;strokeColor=#ff0000;rounded=0;" edge="1" parent="1" source="oPA-yFhTShfLPVLjbNMD-8">
          <mxGeometry relative="1" as="geometry">
            <mxPoint x="410" y="3665" as="targetPoint" />
          </mxGeometry>
        </mxCell>
        <mxCell id="oPA-yFhTShfLPVLjbNMD-10" value="send setails" style="text;html=1;align=center;verticalAlign=middle;resizable=0;points=[];autosize=1;strokeColor=none;fillColor=none;" vertex="1" parent="1">
          <mxGeometry x="320" y="3630" width="90" height="30" as="geometry" />
        </mxCell>
        <mxCell id="oPA-yFhTShfLPVLjbNMD-11" value="Validation" style="rounded=1;whiteSpace=wrap;html=1;arcSize=40;fontColor=#000000;fillColor=#ffffc0;strokeColor=#ff0000;" vertex="1" parent="1">
          <mxGeometry x="410" y="3645" width="120" height="40" as="geometry" />
        </mxCell>
        <mxCell id="oPA-yFhTShfLPVLjbNMD-12" value="" style="edgeStyle=orthogonalEdgeStyle;html=1;verticalAlign=bottom;endArrow=open;endSize=8;strokeColor=#ff0000;rounded=0;" edge="1" parent="1" source="oPA-yFhTShfLPVLjbNMD-11">
          <mxGeometry relative="1" as="geometry">
            <mxPoint x="590" y="3665" as="targetPoint" />
          </mxGeometry>
        </mxCell>
        <mxCell id="oPA-yFhTShfLPVLjbNMD-13" value="Is valid" style="rhombus;whiteSpace=wrap;html=1;fontColor=#000000;fillColor=#ffffc0;strokeColor=#ff0000;" vertex="1" parent="1">
          <mxGeometry x="590" y="3645" width="80" height="40" as="geometry" />
        </mxCell>
        <mxCell id="oPA-yFhTShfLPVLjbNMD-14" value="" style="edgeStyle=orthogonalEdgeStyle;html=1;align=left;verticalAlign=bottom;endArrow=open;endSize=8;strokeColor=#ff0000;rounded=0;" edge="1" parent="1" source="oPA-yFhTShfLPVLjbNMD-13">
          <mxGeometry x="-1" relative="1" as="geometry">
            <mxPoint x="770" y="3665" as="targetPoint" />
          </mxGeometry>
        </mxCell>
        <mxCell id="oPA-yFhTShfLPVLjbNMD-15" value="" style="edgeStyle=orthogonalEdgeStyle;html=1;align=left;verticalAlign=top;endArrow=open;endSize=8;strokeColor=#ff0000;rounded=0;" edge="1" parent="1" source="oPA-yFhTShfLPVLjbNMD-13">
          <mxGeometry x="-1" relative="1" as="geometry">
            <mxPoint x="630" y="3760" as="targetPoint" />
          </mxGeometry>
        </mxCell>
        <mxCell id="oPA-yFhTShfLPVLjbNMD-17" value="If validation is successful" style="text;html=1;align=center;verticalAlign=middle;resizable=0;points=[];autosize=1;strokeColor=none;fillColor=none;" vertex="1" parent="1">
          <mxGeometry x="460" y="3710" width="160" height="30" as="geometry" />
        </mxCell>
        <mxCell id="oPA-yFhTShfLPVLjbNMD-18" value="If validation is not successful" style="text;html=1;align=center;verticalAlign=middle;resizable=0;points=[];autosize=1;strokeColor=none;fillColor=none;" vertex="1" parent="1">
          <mxGeometry x="660" y="3615" width="180" height="30" as="geometry" />
        </mxCell>
        <mxCell id="oPA-yFhTShfLPVLjbNMD-19" value="Create Account" style="rounded=1;whiteSpace=wrap;html=1;arcSize=40;fontColor=#000000;fillColor=#ffffc0;strokeColor=#ff0000;" vertex="1" parent="1">
          <mxGeometry x="570" y="3760" width="120" height="40" as="geometry" />
        </mxCell>
        <mxCell id="oPA-yFhTShfLPVLjbNMD-20" value="" style="edgeStyle=orthogonalEdgeStyle;html=1;verticalAlign=bottom;endArrow=open;endSize=8;strokeColor=#ff0000;rounded=0;" edge="1" parent="1" source="oPA-yFhTShfLPVLjbNMD-22" target="oPA-yFhTShfLPVLjbNMD-25">
          <mxGeometry relative="1" as="geometry">
            <mxPoint x="940" y="3780" as="targetPoint" />
          </mxGeometry>
        </mxCell>
        <mxCell id="oPA-yFhTShfLPVLjbNMD-24" value="" style="edgeStyle=orthogonalEdgeStyle;html=1;verticalAlign=bottom;endArrow=open;endSize=8;strokeColor=#ff0000;rounded=0;" edge="1" parent="1" source="oPA-yFhTShfLPVLjbNMD-19" target="oPA-yFhTShfLPVLjbNMD-22">
          <mxGeometry relative="1" as="geometry">
            <mxPoint x="930" y="3750" as="targetPoint" />
            <mxPoint x="690" y="3780" as="sourcePoint" />
          </mxGeometry>
        </mxCell>
        <mxCell id="oPA-yFhTShfLPVLjbNMD-22" value="confirm user" style="rounded=1;whiteSpace=wrap;html=1;arcSize=40;fontColor=#000000;fillColor=#ffffc0;strokeColor=#ff0000;" vertex="1" parent="1">
          <mxGeometry x="750" y="3760" width="120" height="40" as="geometry" />
        </mxCell>
        <mxCell id="oPA-yFhTShfLPVLjbNMD-25" value="" style="ellipse;html=1;shape=endState;fillColor=#000000;strokeColor=#ff0000;" vertex="1" parent="1">
          <mxGeometry x="925" y="3765" width="30" height="30" as="geometry" />
        </mxCell>
        <mxCell id="oPA-yFhTShfLPVLjbNMD-26" value="reject details" style="rounded=1;whiteSpace=wrap;html=1;arcSize=40;fontColor=#000000;fillColor=#ffffc0;strokeColor=#ff0000;" vertex="1" parent="1">
          <mxGeometry x="770" y="3645" width="120" height="40" as="geometry" />
        </mxCell>
        <mxCell id="oPA-yFhTShfLPVLjbNMD-27" value="" style="edgeStyle=orthogonalEdgeStyle;html=1;verticalAlign=bottom;endArrow=open;endSize=8;strokeColor=#ff0000;rounded=0;" edge="1" parent="1" source="oPA-yFhTShfLPVLjbNMD-26">
          <mxGeometry relative="1" as="geometry">
            <mxPoint x="940" y="3665" as="targetPoint" />
          </mxGeometry>
        </mxCell>
        <mxCell id="oPA-yFhTShfLPVLjbNMD-28" value="convey message" style="rounded=1;whiteSpace=wrap;html=1;arcSize=40;fontColor=#000000;fillColor=#ffffc0;strokeColor=#ff0000;" vertex="1" parent="1">
          <mxGeometry x="940" y="3650" width="120" height="40" as="geometry" />
        </mxCell>
        <mxCell id="oPA-yFhTShfLPVLjbNMD-29" value="" style="edgeStyle=orthogonalEdgeStyle;html=1;verticalAlign=bottom;endArrow=open;endSize=8;strokeColor=#ff0000;rounded=0;" edge="1" parent="1" source="oPA-yFhTShfLPVLjbNMD-28" target="oPA-yFhTShfLPVLjbNMD-30">
          <mxGeometry relative="1" as="geometry">
            <mxPoint x="1110" y="3670" as="targetPoint" />
          </mxGeometry>
        </mxCell>
        <mxCell id="oPA-yFhTShfLPVLjbNMD-30" value="" style="ellipse;html=1;shape=endState;fillColor=#000000;strokeColor=#ff0000;" vertex="1" parent="1">
          <mxGeometry x="1095" y="3655" width="30" height="30" as="geometry" />
        </mxCell>
        <mxCell id="oPA-yFhTShfLPVLjbNMD-31" value="&lt;b&gt;Create Account&lt;/b&gt;" style="text;html=1;align=center;verticalAlign=middle;resizable=0;points=[];autosize=1;strokeColor=none;fillColor=none;" vertex="1" parent="1">
          <mxGeometry x="135" y="3585" width="110" height="30" as="geometry" />
        </mxCell>
      </root>
    </mxGraphModel>
  </diagram>
</mxfile>
